<svg width="90" height="79" viewBox="0 0 90 79" fill="none" xmlns="http://www.w3.org/2000/svg">
<g opacity="0.65">
<path d="M38.0532 5.98444L30.71 3.98926L28.7063 11.3637L36.0495 13.3589L38.0532 5.98444Z" fill="white"/>
<path d="M74.7651 15.9595L67.4219 13.9644L65.4182 21.3388L72.7614 23.334L74.7651 15.9595Z" fill="white"/>
<path d="M76.0915 40.0769L68.7482 38.0818L70.7519 30.7073L63.4087 28.7121L65.4124 21.3376L58.0692 19.3424L56.0655 26.7169L41.3836 22.7278L43.3872 15.3533L36.044 13.3581L34.0403 20.7326L26.6971 18.7374L24.6934 26.1119L17.3593 24.1191L21.3667 9.37019L14.0234 7.375L8.01364 29.4939L22.6955 33.483L14.6821 62.9764L29.364 66.9655L31.3677 59.591L24.0244 57.5958L26.0281 50.2214L55.401 58.2021L53.3973 65.5766L46.0541 63.5814L44.0504 70.9559L58.7323 74.945L66.7458 45.4517L74.089 47.4469L70.0829 62.1913L77.4261 64.1864L83.4359 42.0676L76.0927 40.0724L76.0915 40.0769ZM37.3762 37.4767L30.033 35.4815L32.0367 28.1071L39.3799 30.1022L37.3762 37.4767ZM59.4013 43.461L52.0581 41.4659L54.0618 34.0914L61.405 36.0866L59.4013 43.461V43.461Z" fill="white"/>
</g>
</svg>
