<svg width="79" height="96" viewBox="0 0 79 96" fill="none" xmlns="http://www.w3.org/2000/svg">
<path opacity="0.65" d="M70.2168 34.9076V26.1794H61.439V17.4511H52.6612V26.1794H43.8835V8.72826H52.6612V0H26.3333V8.72826H35.1111V26.1794H26.3333V17.4511H17.5556V26.1794H8.77779V34.9076H0V43.6359H8.77779V61.087H17.5556V69.8152H8.77779V78.5435H17.5556V87.2718H26.3333V96H35.1111V87.2718H43.8889V96H52.6667V87.2718H61.4445V78.5435H70.2222V69.8152H61.4445V61.087H70.2222V43.6359H79V34.9076H70.2222H70.2168ZM17.561 34.9076H35.1111V52.3587H26.3333V43.6305H17.5556V34.9022L17.561 34.9076ZM61.4445 52.3587H52.6667V43.6305H43.8889V34.9022H61.439V52.3533L61.4445 52.3587Z" fill="white"/>
</svg>
