<svg width="38" height="45" viewBox="0 0 38 45" fill="none" xmlns="http://www.w3.org/2000/svg">
<path opacity="0.45" d="M22.3287 30.6956L30.7372 10.0957L33.6585 11.2881L34.8599 8.34475L29.0191 5.96064L26.617 11.8456L20.7761 9.46144L21.9768 6.5199L24.8981 7.71232L26.0995 4.76895L20.2587 2.38484L17.8566 8.26976L14.9352 7.07733L11.3317 15.9056L8.41041 14.7132L7.209 17.6566L21.8138 23.6179L20.6124 26.5613L8.92889 21.7923L7.72747 24.7357L16.4897 28.3123L12.8862 37.1405L9.96483 35.9481L8.76341 38.8915L14.6043 41.2756L17.0064 35.3907L22.8472 37.7748L21.6458 40.7182L18.7245 39.5257L17.5231 42.4691L23.3639 44.8532L28.1688 33.0816L22.328 30.6974L22.3287 30.6956ZM18.3715 15.3474L15.4501 14.155L16.6515 11.2116L19.5729 12.4041L18.3715 15.3474ZM24.2123 17.7315L21.291 16.5391L22.4924 13.5958L25.4137 14.7882L24.2123 17.7315Z" fill="white"/>
</svg>
