<svg width="56" height="60" viewBox="0 0 56 60" fill="none" xmlns="http://www.w3.org/2000/svg">
<g opacity="0.65">
<path d="M35.719 7.15509L30.7734 8.25098L31.874 13.2176L36.8196 12.1217L35.719 7.15509Z" fill="white"/>
<path d="M39.5618 1.09601L34.6162 2.19189L35.7168 7.15854L40.6624 6.06266L39.5618 1.09601Z" fill="white"/>
<path d="M15.9397 11.5379L10.9941 12.6338L12.0947 17.6004L17.0403 16.5046L15.9397 11.5379Z" fill="white"/>
<path d="M9.89384 7.67023L4.94824 8.76611L6.04879 13.7328L10.9944 12.6369L9.89384 7.67023Z" fill="white"/>
<path d="M45.0626 25.9236L43.962 20.9569L39.0164 22.0528L37.9159 17.0862L32.9703 18.1821L31.8697 13.2154L17.036 16.5024L18.1366 21.469L13.191 22.5649L14.2915 27.5316L9.34592 28.6275L10.4465 33.5941L5.50087 34.69L8.80184 49.5869L13.7474 48.491L11.547 38.5607L16.4926 37.4649L17.5932 42.4315L22.5388 41.3356L25.8397 56.2325L30.7853 55.1366L27.4844 40.2397L32.43 39.1439L35.7309 54.0407L40.6765 52.9448L37.3756 38.048L42.3212 36.9521L41.2206 31.9854L46.1662 30.8895L48.3666 40.8198L53.3122 39.7239L50.0113 24.827L45.0656 25.9229L45.0626 25.9236ZM25.2833 30.3064L20.3377 31.4023L19.2371 26.4357L24.1827 25.3398L25.2833 30.3064ZM35.1714 28.1153L30.2258 29.2112L29.1252 24.2446L34.0708 23.1487L35.1714 28.1153Z" fill="white"/>
</g>
</svg>
