<svg width="42" height="42" viewBox="0 0 42 42" fill="none" xmlns="http://www.w3.org/2000/svg">
<g opacity="0.65">
<path d="M3.73711 11.3037L0.113281 12.8579L1.67408 16.4972L5.29792 14.943L3.73711 11.3037Z" fill="white"/>
<path d="M8.91973 13.3897L5.2959 14.9438L6.8567 18.5831L10.4805 17.0289L8.91973 13.3897Z" fill="white"/>
<path d="M14.1043 15.4746L10.4805 17.0288L12.0413 20.6681L15.6651 19.1139L14.1043 15.4746Z" fill="white"/>
<path d="M15.6656 19.1138L17.2264 22.753L13.6026 24.3072L15.1634 27.9465L11.5396 29.5007L14.6602 36.7769L18.284 35.2227L19.8449 38.862L23.4687 37.3078L21.9079 33.6685L25.5317 32.1144L27.0925 35.7536L30.7163 34.1994L29.1555 30.5602L32.7794 29.006L28.0979 18.0905L24.4741 19.6447L22.9133 16.0054L15.6679 19.1128L15.6656 19.1138ZM23.9709 28.4751L20.3471 30.0293L18.7863 26.39L22.4101 24.8358L23.9709 28.4751Z" fill="white"/>
<path d="M24.9734 10.813L21.3496 12.3672L22.9104 16.0064L26.5342 14.4523L24.9734 10.813Z" fill="white"/>
<path d="M27.0369 5.61964L23.4131 7.17383L24.9739 10.8131L28.5977 9.25889L27.0369 5.61964Z" fill="white"/>
<path d="M29.0975 0.427255L25.4736 1.98145L27.0344 5.6207L30.6583 4.06651L29.0975 0.427255Z" fill="white"/>
<path d="M9.9793 25.8584L6.35547 27.4126L7.91627 31.0518L11.5401 29.4977L9.9793 25.8584Z" fill="white"/>
</g>
</svg>
