<svg width="589" height="169" viewBox="0 0 589 169" fill="none" xmlns="http://www.w3.org/2000/svg">
<path d="M208.607 148.835H198.194V160.01H208.607V148.835Z" fill="#F8F8F8"/>
<path d="M218.843 157.825H208.43V169H218.843V157.825Z" fill="#F8F8F8"/>
<path d="M234.483 157.825H218.665V168.812H234.483V157.825Z" fill="#F8F8F8"/>
<path d="M244.675 148.021H234.262V159.196H244.675V148.021Z" fill="#F8F8F8"/>
<path d="M255.087 136.849H244.674V148.024H255.087V136.849Z" fill="#F8F8F8"/>
<path d="M263.455 147.836H254.954V116.872H569.46V127.826H263.455V147.836Z" fill="#F8F8F8"/>
<path d="M218.665 150.272H208.252V127.922H20.8263V116.747H10.4131V105.571H0V27.3506H10.4131V105.571H20.8263V116.747H218.665V150.272Z" fill="#F8F8F8"/>
<path d="M579.873 105.571H569.46V116.747H579.873V105.571Z" fill="#F8F8F8"/>
<path d="M589 105.884H579.679V27.42H570.359V16.21H20.4707V5H570.359V16.21H579.679V27.42H589V105.884Z" fill="#F8F8F8"/>
<path d="M20.8262 16.1753H10.4131V27.3505H20.8262V16.1753Z" fill="#F8F8F8"/>
<path d="M64.085 93V81.625H52.71V36.125H64.085V81.625H86.835V93H64.085ZM86.835 81.625V36.125H98.21V81.625H86.835ZM104.58 93V36.125H115.955V47.5H127.33V58.875H138.705V70.25H150.08V36.125H161.455V93H150.08V81.625H138.705V70.25H127.33V58.875H115.955V93H104.58ZM167.825 93V36.125H201.95V47.5H179.2V58.875H201.95V70.25H179.2V81.625H201.95V93H167.825ZM253.82 93V81.625H242.445V70.25H231.07V58.875H219.695V47.5H208.32V36.125H219.695V47.5H231.07V58.875H242.445V70.25H253.82V81.625H265.195V93H253.82ZM242.445 58.875V47.5H253.82V36.125H265.195V47.5H253.82V58.875H242.445ZM219.695 81.625V70.25H231.07V81.625H219.695ZM208.32 93V81.625H219.695V93H208.32ZM271.565 93V36.125H305.69V47.5H317.065V58.875H305.69V70.25H282.94V93H271.565ZM282.94 58.875H305.235V47.5H282.94V58.875ZM323.435 93V36.125H357.56V47.5H334.81V58.875H357.56V70.25H334.81V81.625H357.56V93H323.435ZM398.055 58.875V47.5H375.305V36.125H398.055V47.5H409.43V58.875H398.055ZM375.305 93V81.625H363.93V47.5H375.305V81.625H398.055V93H375.305ZM398.055 81.625V70.25H409.43V81.625H398.055ZM427.175 93V47.5H415.8V36.125H449.925V47.5H438.55V93H427.175ZM456.295 93V36.125H490.42V47.5H467.67V58.875H490.42V70.25H467.67V81.625H490.42V93H456.295ZM496.79 93V36.125H530.915V47.5H542.29V81.625H530.915V93H496.79ZM508.165 81.625H530.46V47.5H508.165V81.625Z" fill="white"/>
</svg>
