<svg width="80" height="20" viewBox="0 0 80 20" fill="none" xmlns="http://www.w3.org/2000/svg">
<rect width="80" height="20" fill="black"/>
<rect width="80" height="20" fill="black" fill-opacity="0.2"/>
<g clip-path="url(#clip0_1638_16208)">
<path d="M12.0001 12.7799L9.2201 9.9999L8.27344 10.9399L12.0001 14.6666L20.0001 6.66656L19.0601 5.72656L12.0001 12.7799Z" fill="white"/>
</g>
<path d="M29.375 10.25V9H26.875V7.75H29.375V9H30.625V10.25H29.375ZM26.875 14V12.75H25.625V9H26.875V12.75H29.375V14H26.875ZM29.375 12.75V11.5H30.625V12.75H29.375ZM33.375 14V12.75H32.125V9H33.375V7.75H35.875V9H37.125V12.75H35.875V14H33.375ZM33.375 12.7H35.875V9.05H33.375V12.7ZM38.625 14V7.75H39.875V9H41.125V10.25H42.375V11.5H41.125V10.25H39.875V14H38.625ZM43.625 14V10.25H42.375V9H43.625V7.75H44.875V14H43.625ZM46.375 14V7.75H50.125V9H51.375V10.25H50.125V11.5H47.625V14H46.375ZM47.625 10.25H50.075V9H47.625V10.25ZM52.875 14V7.75H54.125V12.75H56.625V14H52.875ZM58.125 14V7.75H61.875V9H59.375V10.25H61.875V11.5H59.375V12.75H61.875V14H58.125ZM64.625 14V9H63.375V7.75H67.125V9H65.875V14H64.625ZM68.625 14V7.75H72.375V9H69.875V10.25H72.375V11.5H69.875V12.75H72.375V14H68.625Z" fill="white"/>
<defs>
<clipPath id="clip0_1638_16208">
<rect width="16" height="16" fill="white" transform="translate(6 2)"/>
</clipPath>
</defs>
</svg>
