<svg width="55" height="61" viewBox="0 0 55 61" fill="none" xmlns="http://www.w3.org/2000/svg">
<path d="M42.1048 5.99756H36.0898V11.9988H42.1048V5.99756Z" fill="white"/>
<path d="M48.1166 0H42.1016V6.00124H48.1166V0Z" fill="white"/>
<path d="M18.0482 5.99756H12.0332V11.9988H18.0482V5.99756Z" fill="white"/>
<path d="M12.0335 0H6.01855V6.00124H12.0335V0Z" fill="white"/>
<path d="M48.1161 29.9988V23.9976H42.1011V17.9964H36.0861V11.9951H18.0449V17.9964H12.03V23.9976H6.01498V29.9988H0V47.9988H6.01498V36.0001H12.03V42.0013H18.0449V60.0013H24.0599V42.0013H30.0749V60.0013H36.0899V42.0013H42.1049V36.0001H48.1198V47.9988H54.1348V29.9988H48.1198H48.1161ZM24.0599 29.9988H18.0449V23.9976H24.0599V29.9988ZM36.0861 29.9988H30.0712V23.9976H36.0861V29.9988Z" fill="white"/>
</svg>
