<svg width="61" height="49" viewBox="0 0 61 49" fill="none" xmlns="http://www.w3.org/2000/svg">
<path d="M18.0413 0H12.0264V6.00124H18.0413V0Z" fill="white"/>
<path d="M48.1126 0H42.0977V6.00124H48.1126V0Z" fill="white"/>
<path d="M54.1236 18.0039H48.1087V12.0027H42.0937V6.00146H36.0787V12.0027H24.0525V6.00146H18.0375V12.0027H12.0225V18.0039H6.01498V6.00146H0V24.0015H12.0262V48.0027H24.0525V42.0015H18.0375V36.0002H42.0974V42.0015H36.0824V48.0027H48.1087V24.0015H54.1236V36.0002H60.1386V18.0002H54.1236V18.0039ZM24.0525 24.0052H18.0375V18.0039H24.0525V24.0052ZM42.0937 24.0052H36.0787V18.0039H42.0937V24.0052Z" fill="white"/>
</svg>
