<svg width="55" height="67" viewBox="0 0 55 67" fill="none" xmlns="http://www.w3.org/2000/svg">
<path d="M48.1161 24.0012V18H42.1011V11.9988H36.0862V18H30.0712V6.00124H36.0862V0H18.0449V6.00124H24.0599V18H18.0449V11.9988H12.03V18H6.01499V24.0012H0V30.0025H6.01499V42.0012H12.03V48.0025H6.01499V54.0037H12.03V60.005H18.0449V66.0062H24.0599V60.005H30.0749V66.0062H36.0899V60.005H42.1049V54.0037H48.1198V48.0025H42.1049V42.0012H48.1198V30.0025H54.1348V24.0012H48.1198H48.1161ZM12.0337 24.0012H24.0599V36H18.0449V29.9988H12.03V23.9975L12.0337 24.0012ZM42.1049 36H36.0899V29.9988H30.0749V23.9975H42.1011V35.9963L42.1049 36Z" fill="white"/>
</svg>
