<svg width="89" height="89" viewBox="0 0 89 89" fill="none" xmlns="http://www.w3.org/2000/svg">
<g clip-path="url(#clip0_1739_12466)">
<path d="M80.524 21.1902H76.2859V16.9521H72.0478V12.714H67.8097V8.47589H59.3335V4.23779H29.6669V8.47589H21.1907V12.714H16.9526V16.9521H12.7145V21.1902H8.47638V25.4283H80.524V21.1902ZM80.524 29.6664V38.1426H76.2859V42.3807H72.0478V46.6187H55.0954V42.3807H50.8573V38.1426H46.6192V33.9045H42.3811V38.1426H38.143V42.3807H33.9049V46.6187H16.9526V42.3807H12.7145V38.1426H8.47638V29.6664H4.23828V59.333H8.47638V67.8092H12.7145V72.0473H16.9526V76.2854H21.1907V80.5235H29.6669V84.7616H59.3335V80.5235H67.8097V76.2854H72.0478V72.0473H76.2859V67.8092H80.524V59.333H84.7621V29.6664H80.524Z" fill="white"/>
<path d="M59.3867 84.8148H29.6141V80.5767H21.1379V76.3386H16.8998V72.1005H12.6617V67.8624H8.42364V59.3862H4.18555V29.6136H8.52959V38.0898H12.7677V42.3279H17.0058V46.566H33.8522V42.3279H38.0903V38.0898H42.3284V33.8517H46.6725V38.0898H50.9105V42.3279H55.1486V46.566H71.9951V42.3279H76.2332V38.0898H80.4713V29.6136H84.8153V59.3862H80.5772V67.8624H76.3391V72.1005H72.101V76.3386H67.8629V80.5767H59.3867V84.8148ZM29.7201 84.7089H59.2808V80.4708H67.757V76.2327H71.9951V71.9946H76.2332V67.7565H80.4713V59.2803H84.7094V29.7196H80.5772V38.1958H76.3391V42.4339H72.101V46.672H55.0427V42.4339H50.8046V38.1958H46.5665V33.9577H42.4344V38.1958H38.1963V42.4339H33.9582V46.672H16.8998V42.4339H12.6617V38.1958H8.42364V29.7196H4.2915V59.2803H8.52959V67.7565H12.7677V71.9946H17.0058V76.2327H21.2439V80.4708H29.7201V84.7089ZM80.5772 25.4815H8.42364V21.1374H12.6617V16.8993H16.8998V12.6612H21.1379V8.42315H29.6141V4.18506H59.3867V8.42315H67.8629V12.6612H72.101V16.8993H76.3391V21.1374H80.5772V25.4815ZM8.52959 25.3755H80.4713V21.2434H76.2332V17.0053H71.9951V12.7672H67.757V8.52911H59.2808V4.29101H29.7201V8.52911H21.2439V12.7672H17.0058V17.0053H12.7677V21.2434H8.52959V25.3755Z" fill="black"/>
<path d="M29.6667 4.2381H21.1905V8.47619H29.6667V4.2381ZM67.8095 8.47619V4.2381H59.3333V8.47619H67.8095ZM59.3333 0H29.6667V4.2381H59.3333V0ZM21.1905 8.47619H16.9524V12.7143H21.1905V8.47619ZM72.0476 12.7143V8.47619H67.8095V12.7143H72.0476ZM16.9524 12.7143H12.7143V16.9524H16.9524V12.7143ZM76.2857 16.9524V12.7143H72.0476V16.9524H76.2857ZM12.7143 16.9524H8.47619V21.1905H12.7143V16.9524ZM80.5238 21.1905V16.9524H76.2857V21.1905H80.5238ZM8.47619 38.1429H12.7143V42.381H16.9524V46.619H33.9048V42.381H38.1429V38.1429H42.381V33.9048H46.619V38.1429H50.8571V42.381H55.0952V46.619H72.0476V42.381H76.2857V38.1429H80.5238V29.6667H84.7619V21.1905H80.5238V25.4286H8.47619V21.1905H4.2381V29.6667H8.47619V38.1429ZM0 29.6667V59.3333H4.2381V29.6667H0ZM4.2381 59.3333V67.8095H8.47619V59.3333H4.2381ZM21.1905 52.9762V57.2143H25.4286V52.9762H21.1905ZM63.5714 57.2143H67.8095V52.9762H63.5714V57.2143ZM80.5238 67.8095H84.7619V59.3333H80.5238V67.8095ZM25.4286 57.2143V61.4524H33.9048V57.2143H25.4286ZM55.0952 61.4524H63.5714V57.2143H55.0952V61.4524ZM8.47619 67.8095V72.0476H12.7143V67.8095H8.47619ZM33.9048 65.6905H55.0952V61.4524H33.9048V65.6905ZM76.2857 72.0476H80.5238V67.8095H76.2857V72.0476ZM12.7143 72.0476V76.2857H16.9524V72.0476H12.7143ZM72.0476 76.2857H76.2857V72.0476H72.0476V76.2857ZM16.9524 76.2857V80.5238H21.1905V76.2857H16.9524ZM67.8095 80.5238H72.0476V76.2857H67.8095V80.5238ZM21.1905 80.5238V84.7619H29.6667V80.5238H21.1905ZM59.3333 84.7619H67.8095V80.5238H59.3333V84.7619ZM29.6667 89H59.3333V84.7619H29.6667V89ZM84.7619 29.6667V59.3333H89V29.6667H84.7619Z" fill="black"/>
</g>
<defs>
<clipPath id="clip0_1739_12466">
<rect width="89" height="89" fill="white"/>
</clipPath>
</defs>
</svg>
