<svg width="19" height="23" viewBox="0 0 19 23" fill="none" xmlns="http://www.w3.org/2000/svg">
<g clip-path="url(#clip0_1739_12458)">
<path d="M18.9753 0H8.85547V1.27756H18.9753V0Z" fill="black"/>
<path d="M8.85459 1.27734H7.58984V2.5549H8.85459V1.27734Z" fill="black"/>
<path d="M18.9737 1.27734H17.709V2.5549H18.9737V1.27734Z" fill="black"/>
<path d="M7.58896 2.55518H6.32422V3.83274H7.58896V2.55518Z" fill="black"/>
<path d="M17.7091 2.55518H16.4443V3.83274H17.7091V2.55518Z" fill="black"/>
<path d="M6.32431 3.8335H5.05957V5.11106H6.32431V3.8335Z" fill="black"/>
<path d="M16.4444 3.8335H15.1797V5.11106H16.4444V3.8335Z" fill="black"/>
<path d="M5.05966 5.11133H3.79492V6.38889H5.05966V5.11133Z" fill="black"/>
<path d="M15.1798 5.11133H13.915V6.38889H15.1798V5.11133Z" fill="black"/>
<path d="M3.79502 6.38867H2.53027V7.66623H3.79502V6.38867Z" fill="black"/>
<path d="M13.9142 6.38867H12.6494V7.66623H13.9142V6.38867Z" fill="black"/>
<path d="M2.52939 7.6665H1.26465V8.94406H2.52939V7.6665Z" fill="black"/>
<path d="M17.7094 7.6665H11.3848V8.94406H17.7094V7.6665Z" fill="black"/>
<path d="M1.26474 8.94482H0V10.2224H1.26474V8.94482Z" fill="black"/>
<path d="M17.7091 8.94482H16.4443V10.2224H17.7091V8.94482Z" fill="black"/>
<path d="M1.26474 10.2227H0V11.5002H1.26474V10.2227Z" fill="black"/>
<path d="M17.7092 10.2227H15.1797V11.5002H17.7092V10.2227Z" fill="black"/>
<path d="M6.32468 11.5H0V12.7776H6.32468V11.5Z" fill="black"/>
<path d="M16.4444 11.5H15.1797V12.7776H16.4444V11.5Z" fill="black"/>
<path d="M6.32431 12.7773H5.05957V14.0549H6.32431V12.7773Z" fill="black"/>
<path d="M15.1789 12.7773H12.6494V14.0549H15.1789V12.7773Z" fill="black"/>
<path d="M6.32431 14.0562H5.05957V15.3337H6.32431V14.0562Z" fill="black"/>
<path d="M13.9142 14.0562H12.6494V15.3337H13.9142V14.0562Z" fill="black"/>
<path d="M5.05966 15.3335H3.79492V16.6111H5.05966V15.3335Z" fill="black"/>
<path d="M12.6496 15.3335H10.1201V16.6111H12.6496V15.3335Z" fill="black"/>
<path d="M5.05966 16.6113H3.79492V17.8889H5.05966V16.6113Z" fill="black"/>
<path d="M10.1202 16.6113H8.85547V17.8889H10.1202V16.6113Z" fill="black"/>
<path d="M3.79502 17.8887H2.53027V19.1662H3.79502V17.8887Z" fill="black"/>
<path d="M8.85459 17.8887H7.58984V19.1662H8.85459V17.8887Z" fill="black"/>
<path d="M3.79502 19.1675H2.53027V20.445H3.79502V19.1675Z" fill="black"/>
<path d="M7.58896 19.1675H6.32422V20.445H7.58896V19.1675Z" fill="black"/>
<path d="M3.79502 20.4448H2.53027V21.7224H3.79502V20.4448Z" fill="black"/>
<path d="M6.32431 20.4448H5.05957V21.7224H6.32431V20.4448Z" fill="black"/>
<path d="M5.05976 21.7227H2.53027V23.0002H5.05976V21.7227Z" fill="black"/>
<path d="M17.7091 1.27734H16.4443V2.5549H17.7091V1.27734Z" fill="white"/>
<path d="M15.1789 2.55518H12.6494V3.83274H15.1789V2.55518Z" fill="white"/>
<path d="M7.58896 3.8335H6.32422V5.11106H7.58896V3.8335Z" fill="white"/>
<path d="M11.3849 3.8335H10.1201V5.11106H11.3849V3.8335Z" fill="white"/>
<path d="M10.1202 6.38867H8.85547V7.66623H10.1202V6.38867Z" fill="white"/>
<path d="M11.3849 8.94482H10.1201V10.2224H11.3849V8.94482Z" fill="white"/>
<path d="M16.4455 8.94482H13.915V10.2224H16.4455V8.94482Z" fill="white"/>
<path d="M10.1202 11.5H8.85547V12.7776H10.1202V11.5Z" fill="white"/>
<path d="M12.6495 11.5H11.3848V12.7776H12.6495V11.5Z" fill="white"/>
<path d="M7.58896 12.7773H6.32422V14.0549H7.58896V12.7773Z" fill="white"/>
<path d="M10.1202 14.0562H8.85547V15.3337H10.1202V14.0562Z" fill="white"/>
<path d="M12.6495 14.0562H11.3848V15.3337H12.6495V14.0562Z" fill="white"/>
<path d="M7.59012 17.8887H3.79492V19.1662H7.59012V17.8887Z" fill="white"/>
<path d="M5.05966 19.1675H3.79492V20.445H5.05966V19.1675Z" fill="white"/>
<path d="M16.4449 1.27734H8.85547V2.5549H16.4449V1.27734Z" fill="white"/>
<path d="M12.6498 2.55518H7.58984V3.83274H12.6498V2.55518Z" fill="white"/>
<path d="M16.4444 2.55518H15.1797V3.83274H16.4444V2.55518Z" fill="white"/>
<path d="M10.1193 3.8335H7.58984V5.11106H10.1193V3.8335Z" fill="white"/>
<path d="M15.18 3.8335H11.3848V5.11106H15.18V3.8335Z" fill="white"/>
<path d="M13.9147 5.11133H5.05957V6.38889H13.9147V5.11133Z" fill="white"/>
<path d="M8.85486 6.38867H3.79492V7.66623H8.85486V6.38867Z" fill="white"/>
<path d="M12.6496 6.38867H10.1201V7.66623H12.6496V6.38867Z" fill="white"/>
<path d="M11.3854 7.6665H2.53027V8.94406H11.3854V7.6665Z" fill="white"/>
<path d="M10.1198 8.94482H1.26465V10.2224H10.1198V8.94482Z" fill="white"/>
<path d="M13.9142 8.94482H11.3848V10.2224H13.9142V8.94482Z" fill="white"/>
<path d="M15.1797 10.2227H1.26465V11.5002H15.1797V10.2227Z" fill="white"/>
<path d="M8.8537 11.5H6.32422V12.7776H8.8537V11.5Z" fill="white"/>
<path d="M11.3849 11.5H10.1201V12.7776H11.3849V11.5Z" fill="white"/>
<path d="M15.1789 11.5H12.6494V12.7776H15.1789V11.5Z" fill="white"/>
<path d="M12.6498 12.7773H7.58984V14.0549H12.6498V12.7773Z" fill="white"/>
<path d="M8.8537 14.0562H6.32422V15.3337H8.8537V14.0562Z" fill="white"/>
<path d="M11.3849 14.0562H10.1201V15.3337H11.3849V14.0562Z" fill="white"/>
<path d="M10.1195 15.3335H5.05957V16.6111H10.1195V15.3335Z" fill="white"/>
<path d="M8.85476 16.6113H5.05957V17.8889H8.85476V16.6113Z" fill="white"/>
<path d="M6.32431 19.1675H5.05957V20.445H6.32431V19.1675Z" fill="white"/>
<path d="M5.05966 20.4448H3.79492V21.7224H5.05966V20.4448Z" fill="white"/>
</g>
<defs>
<clipPath id="clip0_1739_12458">
<rect width="18.975" height="23" fill="white"/>
</clipPath>
</defs>
</svg>
