<svg width="130" height="130" viewBox="0 0 130 130" fill="none" xmlns="http://www.w3.org/2000/svg">
<path d="M43.3333 6.19048H30.9524V12.381H43.3333V6.19048ZM99.0476 12.381V6.19048H86.6667V12.381H99.0476ZM86.6667 0H43.3333V6.19048H86.6667V0ZM30.9524 12.381H24.7619V18.5714H30.9524V12.381ZM105.238 18.5714V12.381H99.0476V18.5714H105.238ZM24.7619 18.5714H18.5714V24.7619H24.7619V18.5714ZM111.429 24.7619V18.5714H105.238V24.7619H111.429ZM18.5714 24.7619H12.381V30.9524H18.5714V24.7619ZM117.619 30.9524V24.7619H111.429V30.9524H117.619ZM12.381 30.9524H6.19048V43.3333H12.381V30.9524ZM24.7619 37.1429V43.3333H30.9524V37.1429H24.7619ZM55.7143 37.1429H49.5238V43.3333H55.7143V37.1429ZM74.2857 37.1429V43.3333H80.4762V37.1429H74.2857ZM99.0476 43.3333H105.238V37.1429H99.0476V43.3333ZM123.81 43.3333V30.9524H117.619V43.3333H123.81ZM30.9524 43.3333V49.5238H37.1429V43.3333H30.9524ZM49.5238 43.3333H43.3333V49.5238H49.5238V43.3333ZM80.4762 43.3333V49.5238H86.6667V43.3333H80.4762ZM92.8571 49.5238H99.0476V43.3333H92.8571V49.5238ZM43.3333 49.5238H37.1429V55.7143H43.3333V49.5238ZM86.6667 55.7143H92.8571V49.5238H86.6667V55.7143ZM37.1429 55.7143H30.9524V61.9048H37.1429V55.7143ZM49.5238 61.9048V55.7143H43.3333V61.9048H49.5238ZM80.4762 61.9048H86.6667V55.7143H80.4762V61.9048ZM99.0476 61.9048V55.7143H92.8571V61.9048H99.0476ZM24.7619 68.0952H30.9524V61.9048H24.7619V68.0952ZM55.7143 68.0952V61.9048H49.5238V68.0952H55.7143ZM74.2857 68.0952H80.4762V61.9048H74.2857V68.0952ZM105.238 68.0952V61.9048H99.0476V68.0952H105.238ZM0 43.3333V86.6667H6.19048V43.3333H0ZM6.19048 86.6667V99.0476H12.381V86.6667H6.19048ZM37.1429 92.8571H92.8571V86.6667H37.1429V92.8571ZM117.619 99.0476H123.81V86.6667H117.619V99.0476ZM12.381 99.0476V105.238H18.5714V99.0476H12.381ZM111.429 105.238H117.619V99.0476H111.429V105.238ZM18.5714 105.238V111.429H24.7619V105.238H18.5714ZM105.238 111.429H111.429V105.238H105.238V111.429ZM24.7619 111.429V117.619H30.9524V111.429H24.7619ZM99.0476 117.619H105.238V111.429H99.0476V117.619ZM30.9524 117.619V123.81H43.3333V117.619H30.9524ZM86.6667 123.81H99.0476V117.619H86.6667V123.81ZM43.3333 130H86.6667V123.81H43.3333V130ZM123.81 43.3333V86.6667H130V43.3333H123.81Z" fill="#E6E6E6"/>
</svg>
