<svg width="20" height="16" viewBox="0 0 20 16" fill="none" xmlns="http://www.w3.org/2000/svg">
<path d="M20 0H0V16H20V0ZM6.5 11H5.3L2.75 7.5V11H1.5V5H2.75L5.25 8.5V5H6.5V11ZM11.5 6.26H9V7.38H11.5V8.64H9V9.75H11.5V11H7.5V5H11.5V6.26ZM18.5 11H12.5V5H13.75V9.51H14.88V5.99H16.13V9.5H17.25V5H18.5V11Z" fill="black"/>
<path d="M20 0H0V16H20V0ZM6.5 11H5.3L2.75 7.5V11H1.5V5H2.75L5.25 8.5V5H6.5V11ZM11.5 6.26H9V7.38H11.5V8.64H9V9.75H11.5V11H7.5V5H11.5V6.26ZM18.5 11H12.5V5H13.75V9.51H14.88V5.99H16.13V9.5H17.25V5H18.5V11Z" fill="black" fill-opacity="0.2"/>
</svg>
