<svg width="184" height="52" viewBox="0 0 184 52" fill="none" xmlns="http://www.w3.org/2000/svg">
<g clip-path="url(#clip0_1031_1100)">
<path d="M170.298 1.51953H13.7014C6.98542 1.51953 1.54102 6.89136 1.54102 13.5178V38.4802C1.54102 45.1067 6.98542 50.4785 13.7014 50.4785H170.298C177.014 50.4785 182.459 45.1067 182.459 38.4802V13.5178C182.459 6.89136 177.014 1.51953 170.298 1.51953Z" fill="black"/>
<path d="M169.557 52H14.4429C6.47817 52 0 45.6082 0 37.7514V14.2504C0 6.39181 6.47817 0 14.4429 0H169.557C177.52 0 184 6.39181 184 14.2504V37.7514C184 45.6082 177.522 52.0018 169.557 52.0018V52ZM14.4429 3.04103C8.17897 3.04103 3.08212 8.06994 3.08212 14.2504V37.7514C3.08212 43.9319 8.17897 48.9608 14.4429 48.9608H169.557C175.821 48.9608 180.918 43.9319 180.918 37.7514V14.2504C180.918 8.06994 175.821 3.04103 169.557 3.04103H14.4429Z" fill="white"/>
<path d="M20.7988 41.3518V14.8936H43.4798V18.9713H47.6145V29.113H43.4798V33.1926H35.2122V41.3518H20.7988Z" fill="white"/>
<path d="M60.845 14.8936H46.4316V41.3518H60.845V14.8936Z" fill="white"/>
<path d="M63.7968 41.3518V37.2722H59.6621V18.9713H63.7968V14.8936H82.3431V18.9713H86.4778V37.2722H82.3431V41.3518H63.7968Z" fill="white"/>
<path d="M85.293 41.3518V14.8936H107.974V18.9713H112.109V37.2722H107.974V41.3518H85.293Z" fill="white"/>
<path d="M115.061 41.3518V37.2722H110.928V18.9713H115.061V14.8936H133.609V18.9713H137.742V37.2722H133.609V41.3518H115.061Z" fill="white"/>
<path d="M144.828 41.3518V29.113H140.695V25.0334H136.561V14.8936H150.972V18.9713H153.098V14.8936H167.511V25.0334H163.376V29.113H159.242V41.3518H144.828Z" fill="white"/>
<path d="M16.4883 37.1086V10.6504H39.1693V14.73H43.304V24.8698H39.1693V28.9494H30.9017V37.1086H16.4883Z" fill="white"/>
<path d="M19.5585 34.0769V13.6807H36.0956V17.7603H40.2303V21.8399H36.0956V25.9195H27.8261V34.0787H19.5566L19.5585 34.0769ZM27.8279 21.8399H31.7965V17.7603H27.8279V21.8399Z" fill="black"/>
<path d="M56.5345 10.6504H42.1211V37.1086H56.5345V10.6504Z" fill="white"/>
<path d="M45.1934 34.0769V13.6807H53.4628V34.0769H45.1934Z" fill="black"/>
<path d="M59.4843 37.1086V33.029H55.3496V14.73H59.4843V10.6504H78.0306V14.73H82.1653V33.029H78.0306V37.1086H59.4843Z" fill="white"/>
<path d="M62.5566 34.0769V29.9973H58.4219V17.7603H62.5566V13.6807H74.9589V17.7603H79.0937V21.8399H70.8261V17.7603H66.6913V29.9991H70.8261V25.9195H79.0937V29.9991H74.9589V34.0787H62.5566V34.0769Z" fill="black"/>
<path d="M80.9844 37.1086V10.6504H103.665V14.73H107.8V33.029H103.665V37.1086H80.9844Z" fill="white"/>
<path d="M84.0547 34.0769V13.6807H100.592V17.7603H104.726V29.9991H100.592V34.0787H84.0547V34.0769ZM92.3241 21.8399H96.2927V17.7603H92.3241V21.8399ZM92.3241 29.9991H96.2927V25.9195H92.3241V29.9991Z" fill="black"/>
<path d="M110.75 37.1086V33.029H106.615V14.73H110.75V10.6504H129.296V14.73H133.431V33.029H129.296V37.1086H110.75Z" fill="white"/>
<path d="M113.824 34.0769V29.9973H109.689V17.7603H113.824V13.6807H126.227V17.7603H130.361V29.9991H126.227V34.0787H113.824V34.0769ZM117.959 29.8351H122.094V17.9243H117.959V29.8351Z" fill="black"/>
<path d="M140.517 37.1086V24.8698H136.383V20.792H132.248V10.6504H146.661V14.73H148.787V10.6504H163.198V20.792H159.064V24.8698H154.931V37.1086H140.517Z" fill="white"/>
<path d="M143.59 34.0769V21.8399H139.455V17.7603H135.32V13.6807H143.59V17.7603H151.859V13.6807H160.129V17.7603H155.994V21.8399H151.859V34.0769H143.59Z" fill="black"/>
</g>
<defs>
<clipPath id="clip0_1031_1100">
<rect width="184" height="52" fill="white"/>
</clipPath>
</defs>
</svg>
