<?xml version="1.0" encoding="utf-8"?>
<!-- Generator: Adobe Illustrator 26.4.0, SVG Export Plug-In . SVG Version: 6.00 Build 0)  -->
<svg version="1.1" id="레이어_1" xmlns="http://www.w3.org/2000/svg" xmlns:xlink="http://www.w3.org/1999/xlink" x="0px"
	 y="0px" viewBox="0 0 1000 286" style="enable-background:new 0 0 1000 286;" xml:space="preserve">
<style type="text/css">
	.st0{fill:#FFFFFF;}
</style>
<g>
	<path class="st0" d="M921.51,0H78.49C35.21,0,0,35.21,0,78.49v129.45c0,43.28,35.21,78.49,78.49,78.49h843.02
		c43.28,0,78.49-35.21,78.49-78.49V78.49C1000,35.21,964.79,0,921.51,0z"/>
	<g>
		<polygon points="113.04,227.77 113.04,82.03 236.31,82.03 236.31,104.5 258.78,104.5 258.78,160.36 236.31,160.36 236.31,182.83 
			191.37,182.83 191.37,227.77 		"/>
		<rect x="252.35" y="82.03" width="78.33" height="145.74"/>
		<polygon points="346.72,227.77 346.72,205.3 324.25,205.3 324.25,104.5 346.72,104.5 346.72,82.03 447.52,82.03 447.52,104.5 
			469.99,104.5 469.99,205.3 447.52,205.3 447.52,227.77 		"/>
		<polygon points="463.56,227.77 463.56,82.03 586.83,82.03 586.83,104.5 609.3,104.5 609.3,205.3 586.83,205.3 586.83,227.77 		"/>
		<polygon points="625.34,227.77 625.34,205.3 602.87,205.3 602.87,104.5 625.34,104.5 625.34,82.03 726.14,82.03 726.14,104.5 
			748.61,104.5 748.61,205.3 726.14,205.3 726.14,227.77 		"/>
		<polygon points="787.12,227.77 787.12,160.36 764.65,160.36 764.65,137.89 742.18,137.89 742.18,82.03 820.51,82.03 820.51,104.5 
			832.06,104.5 832.06,82.03 910.39,82.03 910.39,137.89 887.92,137.89 887.92,160.36 865.45,160.36 865.45,227.77 		"/>
		<polygon points="89.61,204.4 89.61,58.66 212.88,58.66 212.88,81.13 235.35,81.13 235.35,136.99 212.88,136.99 212.88,159.46 
			167.94,159.46 167.94,204.4 		"/>
		<path class="st0" d="M106.31,187.7V75.36h89.88v22.47h22.47v22.47h-22.47v22.47h-44.94v44.94H106.31z M151.25,120.3h21.57V97.83
			h-21.57V120.3z"/>
		<rect x="228.92" y="58.66" width="78.33" height="145.74"/>
		<path class="st0" d="M245.62,187.7V75.36h44.94V187.7H245.62z"/>
		<polygon points="323.29,204.4 323.29,181.93 300.82,181.93 300.82,81.13 323.29,81.13 323.29,58.66 424.09,58.66 424.09,81.13 
			446.56,81.13 446.56,181.93 424.09,181.93 424.09,204.4 		"/>
		<path class="st0" d="M339.99,187.7v-22.47h-22.47V97.83h22.47V75.36h67.41v22.47h22.47v22.47h-44.94V97.83h-22.47v67.41h22.47
			v-22.47h44.94v22.47H407.4v22.47H339.99z"/>
		<polygon points="440.13,204.4 440.13,58.66 563.4,58.66 563.4,81.13 585.87,81.13 585.87,181.93 563.4,181.93 563.4,204.4 		"/>
		<path class="st0" d="M456.83,187.7V75.36h89.88v22.47h22.47v67.41h-22.47v22.47H456.83z M501.77,120.3h21.57V97.83h-21.57V120.3z
			 M501.77,165.24h21.57v-22.47h-21.57V165.24z"/>
		<polygon points="601.91,204.4 601.91,181.93 579.44,181.93 579.44,81.13 601.91,81.13 601.91,58.66 702.71,58.66 702.71,81.13 
			725.18,81.13 725.18,181.93 702.71,181.93 702.71,204.4 		"/>
		<path class="st0" d="M618.61,187.7v-22.47h-22.47V97.83h22.47V75.36h67.41v22.47h22.47v67.41h-22.47v22.47H618.61z M641.08,164.34
			h22.47V98.73h-22.47V164.34z"/>
		<polygon points="763.69,204.4 763.69,136.99 741.22,136.99 741.22,114.52 718.75,114.52 718.75,58.66 797.08,58.66 797.08,81.13 
			808.63,81.13 808.63,58.66 886.96,58.66 886.96,114.52 864.49,114.52 864.49,136.99 842.02,136.99 842.02,204.4 		"/>
		<path class="st0" d="M780.38,187.7V120.3h-22.47V97.83h-22.47V75.36h44.94v22.47h44.94V75.36h44.94v22.47h-22.47v22.47h-22.47
			v67.41H780.38z"/>
	</g>
</g>
</svg>
