<svg width="40" height="66" viewBox="0 0 40 66" fill="none" xmlns="http://www.w3.org/2000/svg">
<g clip-path="url(#clip0_1338_14076)">
<path d="M15 12.6203V10.0967H12.5004V12.6203H15Z" fill="#2E2E2E"/>
<path d="M15 10.0959V7.57227H12.5004V10.0959H15Z" fill="#2E2E2E"/>
<path d="M17.5 12.6193V10.0957H15.0004V12.6193H17.5Z" fill="black"/>
<path d="M20 12.6193V10.0957H17.5004V12.6193H20Z" fill="#2E2E2E"/>
<path d="M22.5 12.6203V10.0967H20.0004V12.6203H22.5Z" fill="#2E2E2E"/>
<path d="M25.002 12.6193V10.0957H22.5023V12.6193H25.002Z" fill="black"/>
<path d="M27.5 12.6193V10.0957H25.0004V12.6193H27.5Z" fill="#616161"/>
<path d="M30 12.6203V10.0967H27.5004V12.6203H30Z" fill="#2E2E2E"/>
<path d="M32.502 12.6193V10.0957H30.0023V12.6193H32.502Z" fill="#2E2E2E"/>
<path d="M17.5 10.0959V7.57227H15.0004V10.0959H17.5Z" fill="#2E2E2E"/>
<path d="M20 10.0959V7.57227H17.5004V10.0959H20Z" fill="black"/>
<path d="M22.5 10.0959V7.57227H20.0004V10.0959H22.5Z" fill="black"/>
<path d="M25 10.0959V7.57227H22.5004V10.0959H25Z" fill="#616161"/>
<path d="M27.5 10.0959V7.57227H25.0004V10.0959H27.5Z" fill="#616161"/>
<path d="M30 10.0959V7.57227H27.5004V10.0959H30Z" fill="#616161"/>
<path d="M15 7.57246V5.04883H12.5004V7.57246H15Z" fill="black"/>
<path d="M17.5 7.57246V5.04883H15.0004V7.57246H17.5Z" fill="black"/>
<path d="M20 7.5705V5.04688H17.5004V7.5705H20Z" fill="black"/>
<path d="M22.5 7.57246V5.04883H20.0004V7.57246H22.5Z" fill="black"/>
<path d="M25 7.57246V5.04883H22.5004V7.57246H25Z" fill="black"/>
<path d="M27.5 7.5705V5.04688H25.0004V7.5705H27.5Z" fill="black"/>
<path d="M30 7.57246V5.04883H27.5004V7.57246H30Z" fill="black"/>
<path d="M12.5 15.1428V12.6191H10.0004V15.1428H12.5Z" fill="#2E2E2E"/>
<path d="M12.5 12.6193V10.0957H10.0004V12.6193H12.5Z" fill="#2E2E2E"/>
<path d="M12.5 10.0959V7.57227H10.0004V10.0959H12.5Z" fill="#2E2E2E"/>
<path d="M12.5 7.5705V5.04688H10.0004V7.5705H12.5Z" fill="black"/>
<path d="M15 15.1437V12.6201H12.5004V15.1437H15Z" fill="black"/>
<path d="M17.5 15.1437V12.6201H15.0004V15.1437H17.5Z" fill="#2E2E2E"/>
<path d="M20 15.1428V12.6191H17.5004V15.1428H20Z" fill="#2E2E2E"/>
<path d="M22.5 15.1437V12.6201H20.0004V15.1437H22.5Z" fill="#2E2E2E"/>
<path d="M25 15.1437V12.6201H22.5004V15.1437H25Z" fill="black"/>
<path d="M27.5 15.1428V12.6191H25.0004V15.1428H27.5Z" fill="#2E2E2E"/>
<path d="M30 15.1437V12.6201H27.5004V15.1437H30Z" fill="#2E2E2E"/>
<path d="M32.5 15.1437V12.6201H30.0004V15.1437H32.5Z" fill="#2E2E2E"/>
<path d="M10 17.6682V15.1445H7.50037V17.6682H10Z" fill="#2E2E2E"/>
<path d="M10 15.1437V12.6201H7.50037V15.1437H10Z" fill="#2E2E2E"/>
<path d="M12.5 17.6682V15.1445H10.0004V17.6682H12.5Z" fill="black"/>
<path d="M15 17.6682V15.1445H12.5004V17.6682H15Z" fill="#2E2E2E"/>
<path d="M17.5 17.6682V15.1445H15.0004V17.6682H17.5Z" fill="#2E2E2E"/>
<path d="M20 17.6682V15.1445H17.5004V17.6682H20Z" fill="#2E2E2E"/>
<path d="M22.5 17.6682V15.1445H20.0004V17.6682H22.5Z" fill="#2E2E2E"/>
<path d="M25 17.6682V15.1445H22.5004V17.6682H25Z" fill="black"/>
<path d="M27.5 17.6682V15.1445H25.0004V17.6682H27.5Z" fill="#2E2E2E"/>
<path d="M30 17.6682V15.1445H27.5004V17.6682H30Z" fill="#2E2E2E"/>
<path d="M10 20.1916V17.668H7.50037V20.1916H10Z" fill="#2E2E2E"/>
<path d="M12.5 20.1916V17.668H10.0004V20.1916H12.5Z" fill="#2E2E2E"/>
<path d="M15 20.1926V17.6689H12.5004V20.1926H15Z" fill="black"/>
<path d="M17.5 20.1916V17.668H15.0004V20.1916H17.5Z" fill="black"/>
<path d="M20 20.1916V17.668H17.5004V20.1916H20Z" fill="#2E2E2E"/>
<path d="M22.5 20.1926V17.6689H20.0004V20.1926H22.5Z" fill="#2E2E2E"/>
<path d="M25.002 20.1916V17.668H22.5023V20.1916H25.002Z" fill="black"/>
<path d="M27.5 20.1916V17.668H25.0004V20.1916H27.5Z" fill="#2E2E2E"/>
<path d="M30 20.1926V17.6689H27.5004V20.1926H30Z" fill="#616161"/>
<path d="M10 22.716V20.1924H7.50037V22.716H10Z" fill="#2E2E2E"/>
<path d="M12.5 22.715V20.1914H10.0004V22.715H12.5Z" fill="#616161"/>
<path d="M15 22.716V20.1924H12.5004V22.716H15Z" fill="#616161"/>
<path d="M17.5 22.716V20.1924H15.0004V22.716H17.5Z" fill="black"/>
<path d="M20 22.715V20.1914H17.5004V22.715H20Z" fill="#2E2E2E"/>
<path d="M22.5 22.716V20.1924H20.0004V22.716H22.5Z" fill="#2E2E2E"/>
<path d="M25 22.716V20.1924H22.5004V22.716H25Z" fill="black"/>
<path d="M27.5 22.715V20.1914H25.0004V22.715H27.5Z" fill="#616161"/>
<path d="M30 22.716V20.1924H27.5004V22.716H30Z" fill="#2E2E2E"/>
<path d="M10 25.2395V22.7158H7.50037V25.2395H10Z" fill="#616161"/>
<path d="M12.5 25.2394V22.7158H10.0004V25.2394H12.5Z" fill="#616161"/>
<path d="M15 25.2394V22.7158H12.5004V25.2394H15Z" fill="#616161"/>
<path d="M17.5 25.2395V22.7158H15.0004V25.2395H17.5Z" fill="black"/>
<path d="M20 25.2395V22.7158H17.5004V25.2395H20Z" fill="#2E2E2E"/>
<path d="M22.5 25.2394V22.7158H20.0004V25.2394H22.5Z" fill="#2E2E2E"/>
<path d="M25 25.2395V22.7158H22.5004V25.2395H25Z" fill="black"/>
<path d="M27.5 25.2395V22.7158H25.0004V25.2395H27.5Z" fill="#2E2E2E"/>
<path d="M30 25.2394V22.7158H27.5004V25.2394H30Z" fill="#2E2E2E"/>
<path d="M10 27.7639V25.2402H7.50037V27.7639H10Z" fill="#616161"/>
<path d="M12.5 27.7639V25.2402H10.0004V27.7639H12.5Z" fill="#616161"/>
<path d="M15 27.7648V25.2412H12.5004V27.7648H15Z" fill="#2E2E2E"/>
<path d="M17.5 27.7639V25.2402H15.0004V27.7639H17.5Z" fill="black"/>
<path d="M20 27.7639V25.2402H17.5004V27.7639H20Z" fill="#2E2E2E"/>
<path d="M22.5 27.7648V25.2412H20.0004V27.7648H22.5Z" fill="#2E2E2E"/>
<path d="M25.002 27.7639V25.2402H22.5023V27.7639H25.002Z" fill="black"/>
<path d="M27.5 27.7639V25.2402H25.0004V27.7639H27.5Z" fill="#2E2E2E"/>
<path d="M30 27.7648V25.2412H27.5004V27.7648H30Z" fill="#2E2E2E"/>
<path d="M10 30.2883V27.7646H7.50037V30.2883H10Z" fill="#616161"/>
<path d="M12.5 30.2873V27.7637H10.0004V30.2873H12.5Z" fill="#2E2E2E"/>
<path d="M15 30.2883V27.7646H12.5004V30.2883H15Z" fill="black"/>
<path d="M17.5 30.2883V27.7646H15.0004V30.2883H17.5Z" fill="black"/>
<path d="M20 30.2873V27.7637H17.5004V30.2873H20Z" fill="#2E2E2E"/>
<path d="M22.5 30.2883V27.7646H20.0004V30.2883H22.5Z" fill="#2E2E2E"/>
<path d="M25 30.2883V27.7646H22.5004V30.2883H25Z" fill="black"/>
<path d="M27.5 30.2873V27.7637H25.0004V30.2873H27.5Z" fill="black"/>
<path d="M30 30.2883V27.7646H27.5004V30.2883H30Z" fill="#2E2E2E"/>
<path d="M12.5 32.8117V30.2881H10.0004V32.8117H12.5Z" fill="black"/>
<path d="M15 32.8117V30.2881H12.5004V32.8117H15Z" fill="#2E2E2E"/>
<path d="M17.5 32.8117V30.2881H15.0004V32.8117H17.5Z" fill="#2E2E2E"/>
<path d="M20 32.8117V30.2881H17.5004V32.8117H20Z" fill="#2E2E2E"/>
<path d="M22.5 32.8117V30.2881H20.0004V32.8117H22.5Z" fill="#2E2E2E"/>
<path d="M25 32.8117V30.2881H22.5004V32.8117H25Z" fill="#2E2E2E"/>
<path d="M27.5 32.8117V30.2881H25.0004V32.8117H27.5Z" fill="#2E2E2E"/>
<path d="M30 32.8117V30.2881H27.5004V32.8117H30Z" fill="black"/>
<path d="M15 35.3371V32.8135H12.5004V35.3371H15Z" fill="black"/>
<path d="M17.5 35.3352V32.8115H15.0004V35.3352H17.5Z" fill="black"/>
<path d="M20 35.3352V32.8115H17.5004V35.3352H20Z" fill="black"/>
<path d="M22.5 35.3371V32.8135H20.0004V35.3371H22.5Z" fill="black"/>
<path d="M25.002 35.3352V32.8115H22.5023V35.3352H25.002Z" fill="black"/>
<path d="M27.5 35.3352V32.8115H25.0004V35.3352H27.5Z" fill="black"/>
<path d="M30 35.3371V32.8135H27.5004V35.3371H30Z" fill="#2E2E2E"/>
<path d="M15 37.8605V35.3369H12.5004V37.8605H15Z" fill="black"/>
<path d="M17.5 37.8605V35.3369H15.0004V37.8605H17.5Z" fill="black"/>
<path d="M20 37.8596V35.3359H17.5004V37.8596H20Z" fill="black"/>
<path d="M22.5 37.8605V35.3369H20.0004V37.8605H22.5Z" fill="black"/>
<path d="M25 37.8605V35.3369H22.5004V37.8605H25Z" fill="black"/>
<path d="M27.5 37.8596V35.3359H25.0004V37.8596H27.5Z" fill="black"/>
<path d="M30 37.8605V35.3369H27.5004V37.8605H30Z" fill="black"/>
<path d="M12.5 35.3352V32.8115H10.0004V35.3352H12.5Z" fill="#2E2E2E"/>
<path d="M12.5 37.8596V35.3359H10.0004V37.8596H12.5Z" fill="black"/>
<path d="M10 12.6193V10.0957H7.50037V12.6193H10Z" fill="#2E2E2E"/>
<path d="M10 10.0959V7.57227H7.50037V10.0959H10Z" fill="black"/>
<path d="M10 32.8117V30.2881H7.50037V32.8117H10Z" fill="#2E2E2E"/>
<path d="M10 35.3352V32.8115H7.50037V35.3352H10Z" fill="black"/>
<path d="M7.5 17.6682V15.1445H5.00037V17.6682H7.5Z" fill="black"/>
<path d="M7.5 15.1437V12.6201H5.00037V15.1437H7.5Z" fill="black"/>
<path d="M7.5 20.1926V17.6689H5.00037V20.1926H7.5Z" fill="black"/>
<path d="M7.5 22.716V20.1924H5.00037V22.716H7.5Z" fill="black"/>
<path d="M7.5 25.2394V22.7158H5.00037V25.2394H7.5Z" fill="black"/>
<path d="M7.5 27.7648V25.2412H5.00037V27.7648H7.5Z" fill="black"/>
<path d="M7.5 30.2883V27.7646H5.00037V30.2883H7.5Z" fill="black"/>
<path d="M7.5 12.6203V10.0967H5.00037V12.6203H7.5Z" fill="black"/>
<path d="M7.5 32.8117V30.2881H5.00037V32.8117H7.5Z" fill="black"/>
<path d="M5 17.6682V15.1445H2.50037V17.6682H5Z" fill="#2E2E2E"/>
<path d="M5 15.1428V12.6191H2.50037V15.1428H5Z" fill="#2E2E2E"/>
<path d="M5 20.1916V17.668H2.50037V20.1916H5Z" fill="#2E2E2E"/>
<path d="M5 22.715V20.1914H2.50037V22.715H5Z" fill="#2E2E2E"/>
<path d="M5 25.2394V22.7158H2.50037V25.2394H5Z" fill="#2E2E2E"/>
<path d="M5 27.7639V25.2402H2.50037V27.7639H5Z" fill="#2E2E2E"/>
<path d="M5 30.2873V27.7637H2.50037V30.2873H5Z" fill="#616161"/>
<path d="M5 12.6193V10.0957H2.50037V12.6193H5Z" fill="#2E2E2E"/>
<path d="M5 32.8117V30.2881H2.50037V32.8117H5Z" fill="#616161"/>
<path d="M32.5 17.6682V15.1445H30.0004V17.6682H32.5Z" fill="#616161"/>
<path d="M32.502 20.1916V17.668H30.0023V20.1916H32.502Z" fill="#2E2E2E"/>
<path d="M32.5 22.716V20.1924H30.0004V22.716H32.5Z" fill="#2E2E2E"/>
<path d="M32.5 25.2395V22.7158H30.0004V25.2395H32.5Z" fill="#2E2E2E"/>
<path d="M32.502 27.7639V25.2402H30.0023V27.7639H32.502Z" fill="#2E2E2E"/>
<path d="M32.5 30.2883V27.7646H30.0004V30.2883H32.5Z" fill="#2E2E2E"/>
<path d="M35 15.1428V12.6191H32.5004V15.1428H35Z" fill="black"/>
<path d="M32.5 10.0959V7.57227H30.0004V10.0959H32.5Z" fill="black"/>
<path d="M35 12.6193V10.0957H32.5004V12.6193H35Z" fill="black"/>
<path d="M15 5.04804V2.52441H12.5004V5.04804H15Z" fill="#2E2E2E"/>
<path d="M17.5 5.04707V2.52344H15.0004V5.04707H17.5Z" fill="#2E2E2E"/>
<path d="M20 5.04707V2.52344H17.5004V5.04707H20Z" fill="#2E2E2E"/>
<path d="M22.5 5.04804V2.52441H20.0004V5.04804H22.5Z" fill="#2E2E2E"/>
<path d="M25.002 5.04707V2.52344H22.5023V5.04707H25.002Z" fill="#2E2E2E"/>
<path d="M27.5 5.04707V2.52344H25.0004V5.04707H27.5Z" fill="#2E2E2E"/>
<path d="M30 5.04804V2.52441H27.5004V5.04804H30Z" fill="#616161"/>
<path d="M12.5 5.04707V2.52344H10.0004V5.04707H12.5Z" fill="#2E2E2E"/>
<path d="M10 7.57246V5.04883H7.50037V7.57246H10Z" fill="#2E2E2E"/>
<path d="M7.5 10.0959V7.57227H5.00037V10.0959H7.5Z" fill="#2E2E2E"/>
<path d="M32.5 7.57246V5.04883H30.0004V7.57246H32.5Z" fill="#616161"/>
<path d="M35 10.0959V7.57227H32.5004V10.0959H35Z" fill="#2E2E2E"/>
<path d="M35 17.6682V15.1445H32.5004V17.6682H35Z" fill="black"/>
<path d="M35 20.1916V17.668H32.5004V20.1916H35Z" fill="black"/>
<path d="M35 22.715V20.1914H32.5004V22.715H35Z" fill="black"/>
<path d="M35 25.2395V22.7158H32.5004V25.2395H35Z" fill="black"/>
<path d="M35 27.7639V25.2402H32.5004V27.7639H35Z" fill="black"/>
<path d="M35 30.2873V27.7637H32.5004V30.2873H35Z" fill="black"/>
<path d="M32.5 32.8117V30.2881H30.0004V32.8117H32.5Z" fill="#2E2E2E"/>
<path d="M35 32.8117V30.2881H32.5004V32.8117H35Z" fill="black"/>
<path d="M37.5 15.1437V12.6201H35.0004V15.1437H37.5Z" fill="#2E2E2E"/>
<path d="M37.5 12.6203V10.0967H35.0004V12.6203H37.5Z" fill="#616161"/>
<path d="M37.5 17.6682V15.1445H35.0004V17.6682H37.5Z" fill="#2E2E2E"/>
<path d="M37.5 20.1926V17.6689H35.0004V20.1926H37.5Z" fill="#2E2E2E"/>
<path d="M37.5 22.716V20.1924H35.0004V22.716H37.5Z" fill="#2E2E2E"/>
<path d="M37.5 25.2394V22.7158H35.0004V25.2394H37.5Z" fill="#2E2E2E"/>
<path d="M37.5 27.7648V25.2412H35.0004V27.7648H37.5Z" fill="#2E2E2E"/>
<path d="M37.5 30.2883V27.7646H35.0004V30.2883H37.5Z" fill="#2E2E2E"/>
<path d="M37.5 32.8117V30.2881H35.0004V32.8117H37.5Z" fill="#2E2E2E"/>
<path d="M32.502 35.3352V32.8115H30.0023V35.3352H32.502Z" fill="black"/>
<path d="M15 40.384V37.8604H12.5004V40.384H15Z" fill="#2E2E2E"/>
<path d="M17.5 40.384V37.8604H15.0004V40.384H17.5Z" fill="#2E2E2E"/>
<path d="M20 40.384V37.8604H17.5004V40.384H20Z" fill="#2E2E2E"/>
<path d="M22.5 40.384V37.8604H20.0004V40.384H22.5Z" fill="#2E2E2E"/>
<path d="M25 40.384V37.8604H22.5004V40.384H25Z" fill="#2E2E2E"/>
<path d="M27.5 40.384V37.8604H25.0004V40.384H27.5Z" fill="#2E2E2E"/>
<path d="M30 40.384V37.8604H27.5004V40.384H30Z" fill="#2E2E2E"/>
<path d="M12.5 40.384V37.8604H10.0004V40.384H12.5Z" fill="#2E2E2E"/>
<path d="M10 37.8605V35.3369H7.50037V37.8605H10Z" fill="#2E2E2E"/>
<path d="M7.5 35.3371V32.8135H5.00037V35.3371H7.5Z" fill="#2E2E2E"/>
<path d="M2.5 17.6682V15.1445H0.000365019V17.6682H2.5Z" fill="black"/>
<path d="M2.5 15.1437V12.6201H0.000365973V15.1437H2.5Z" fill="black"/>
<path d="M2.5 20.1916V17.668H0.000365019V20.1916H2.5Z" fill="black"/>
<path d="M2.5 22.716V20.1924H0.000366688V22.716H2.5Z" fill="black"/>
<path d="M2.5 25.2394V22.7158H0.000365019V25.2394H2.5Z" fill="black"/>
<path d="M2.5 27.7639V25.2402H0.000365019V27.7639H2.5Z" fill="black"/>
<path d="M2.5 30.2883V27.7646H0.000366688V30.2883H2.5Z" fill="black"/>
<path d="M2.5 12.6193V10.0957H0.000365973V12.6193H2.5Z" fill="black"/>
<path d="M2.5 32.8117V30.2881H0.000365019V32.8117H2.5Z" fill="black"/>
<path d="M10 5.04707V2.52344H7.50037V5.04707H10Z" fill="#616161"/>
<path d="M7.5 7.57246V5.04883H5.00037V7.57246H7.5Z" fill="#616161"/>
<path d="M5 10.0959V7.57227H2.50037V10.0959H5Z" fill="#616161"/>
<path d="M10 40.384V37.8604H7.50037V40.384H10Z" fill="#616161"/>
<path d="M7.5 37.8605V35.3369H5.00037V37.8605H7.5Z" fill="#2E2E2E"/>
<path d="M5 35.3352V32.8115H2.50037V35.3352H5Z" fill="#616161"/>
<path d="M35 35.3352V32.8115H32.5004V35.3352H35Z" fill="#2E2E2E"/>
<path d="M32.5 37.8605V35.3369H30.0004V37.8605H32.5Z" fill="#2E2E2E"/>
<path d="M32.502 5.04707V2.52344H30.0023V5.04707H32.502Z" fill="#616161"/>
<path d="M35 7.5705V5.04688H32.5004V7.5705H35Z" fill="#2E2E2E"/>
<path d="M37.5 10.0959V7.57227H35.0004V10.0959H37.5Z" fill="#2E2E2E"/>
<path d="M40 15.1437V12.6201H37.5004V15.1437H40Z" fill="black"/>
<path d="M40.002 12.6193V10.0957H37.5023V12.6193H40.002Z" fill="black"/>
<path d="M15 2.52363V0L12.5004 0V2.52363H15Z" fill="black"/>
<path d="M17.5 2.52363V0L15.0004 0V2.52363H17.5Z" fill="black"/>
<path d="M20 2.52363V0L17.5004 0V2.52363H20Z" fill="black"/>
<path d="M22.5 2.52363V0L20.0004 0V2.52363H22.5Z" fill="black"/>
<path d="M25 2.52363V0L22.5004 0V2.52363H25Z" fill="black"/>
<path d="M27.5 2.52363V0L25.0004 0V2.52363H27.5Z" fill="black"/>
<path d="M30 2.52363V0L27.5004 0V2.52363H30Z" fill="black"/>
<path d="M12.5 2.52363V0L10.0004 0V2.52363H12.5Z" fill="black"/>
<path d="M2.5 10.0959V7.57227H0.000365019V10.0959H2.5Z" fill="black"/>
<path d="M10 2.52363V0L7.50037 0V2.52363H10Z" fill="black"/>
<path d="M7.5 5.04804V2.52441H5.00037V5.04804H7.5Z" fill="black"/>
<path d="M5 7.5705V5.04688H2.50037V7.5705H5Z" fill="black"/>
<path d="M32.5 2.52363V0L30.0004 0V2.52363H32.5Z" fill="black"/>
<path d="M35 5.04707V2.52344H32.5004V5.04707H35Z" fill="black"/>
<path d="M37.5 7.57245V5.04883H35.0004V7.57245H37.5Z" fill="black"/>
<path d="M40 10.0959V7.57227H37.5004V10.0959H40Z" fill="black"/>
<path d="M40 17.6682V15.1445H37.5004V17.6682H40Z" fill="black"/>
<path d="M40.002 20.1916V17.668H37.5023V20.1916H40.002Z" fill="black"/>
<path d="M40 22.716V20.1924H37.5004V22.716H40Z" fill="black"/>
<path d="M40 25.2395V22.7158H37.5004V25.2395H40Z" fill="black"/>
<path d="M40.002 27.7639V25.2402H37.5023V27.7639H40.002Z" fill="black"/>
<path d="M40 30.2883V27.7646H37.5004V30.2883H40Z" fill="black"/>
<path d="M40 32.8117V30.2881H37.5004V32.8117H40Z" fill="black"/>
<path d="M32.5 40.384V37.8604H30.0004V40.384H32.5Z" fill="#616161"/>
<path d="M37.5 35.3371V32.8135H35.0004V35.3371H37.5Z" fill="#616161"/>
<path d="M35 37.8596V35.3359H32.5004V37.8596H35Z" fill="#616161"/>
<path d="M15 42.9084V40.3848H12.5004V42.9084H15Z" fill="black"/>
<path d="M17.5 42.9074V40.3838H15.0004V42.9074H17.5Z" fill="black"/>
<path d="M20 42.9074V40.3838H17.5004V42.9074H20Z" fill="black"/>
<path d="M22.5 42.9084V40.3848H20.0004V42.9084H22.5Z" fill="black"/>
<path d="M25.002 42.9074V40.3838H22.5023V42.9074H25.002Z" fill="black"/>
<path d="M27.5 42.9074V40.3838H25.0004V42.9074H27.5Z" fill="black"/>
<path d="M30 42.9084V40.3848H27.5004V42.9084H30Z" fill="black"/>
<path d="M12.5 42.9074V40.3838H10.0004V42.9074H12.5Z" fill="black"/>
<path d="M12.5 45.4309V42.9072H10.0004V45.4309H12.5Z" fill="#262626"/>
<path d="M12.5 47.9562V45.4326H10.0004V47.9562H12.5Z" fill="#4D4D4D"/>
<path d="M12.5 50.4797V47.9561H10.0004V50.4797H12.5Z" fill="#4D4D4D"/>
<path d="M12.5 53.0031V50.4795H10.0004V53.0031H12.5Z" fill="#4D4D4D"/>
<path d="M12.5 55.5285V53.0049H10.0004V55.5285H12.5Z" fill="#4D4D4D"/>
<path d="M12.5 58.0519V55.5283H10.0004V58.0519H12.5Z" fill="#4D4D4D"/>
<path d="M12.5 60.5754V58.0518H10.0004V60.5754H12.5Z" fill="#4D4D4D"/>
<path d="M12.5 63.0998V60.5762H10.0004V63.0998H12.5Z" fill="#4D4D4D"/>
<path d="M12.5 65.6242V63.1006H10.0004V65.6242H12.5Z" fill="#4D4D4D"/>
<path d="M15 45.4328V42.9092H12.5004V45.4328H15Z" fill="#262626"/>
<path d="M15 47.9562V45.4326H12.5004V47.9562H15Z" fill="#262626"/>
<path d="M15 50.4807V47.957H12.5004V50.4807H15Z" fill="#262626"/>
<path d="M15 53.0041V50.4805H12.5004V53.0041H15Z" fill="#262626"/>
<path d="M15 55.5285V53.0049H12.5004V55.5285H15Z" fill="#262626"/>
<path d="M15 58.0529V55.5293H12.5004V58.0529H15Z" fill="#262626"/>
<path d="M14.998 60.5764V58.0527H12.4984V60.5764H14.998Z" fill="#262626"/>
<path d="M15 63.0998V60.5762H12.5004V63.0998H15Z" fill="#262626"/>
<path d="M17.5 45.4328V42.9092H15.0004V45.4328H17.5Z" fill="#262626"/>
<path d="M17.5 47.9562V45.4326H15.0004V47.9562H17.5Z" fill="#4D4D4D"/>
<path d="M17.5 50.4797V47.9561H15.0004V50.4797H17.5Z" fill="#4D4D4D"/>
<path d="M17.5 53.0041V50.4805H15.0004V53.0041H17.5Z" fill="#4D4D4D"/>
<path d="M17.5 55.5285V53.0049H15.0004V55.5285H17.5Z" fill="#4D4D4D"/>
<path d="M17.5 58.052V55.5283H15.0004V58.052H17.5Z" fill="#4D4D4D"/>
<path d="M17.5 60.5764V58.0527H15.0004V60.5764H17.5Z" fill="#4D4D4D"/>
<path d="M20 45.4309V42.9072H17.5004V45.4309H20Z" fill="#262626"/>
<path d="M20 47.9562V45.4326H17.5004V47.9562H20Z" fill="#4D4D4D"/>
<path d="M20 50.4797V47.9561H17.5004V50.4797H20Z" fill="#4D4D4D"/>
<path d="M20 53.0031V50.4795H17.5004V53.0031H20Z" fill="#4D4D4D"/>
<path d="M20 55.5285V53.0049H17.5004V55.5285H20Z" fill="#4D4D4D"/>
<path d="M20 58.052V55.5283H17.5004V58.052H20Z" fill="#4D4D4D"/>
<path d="M22.5 45.4328V42.9092H20.0004V45.4328H22.5Z" fill="#262626"/>
<path d="M22.5 47.9562V45.4326H20.0004V47.9562H22.5Z" fill="#4D4D4D"/>
<path d="M22.5 50.4807V47.957H20.0004V50.4807H22.5Z" fill="#4D4D4D"/>
<path d="M22.5 53.0041V50.4805H20.0004V53.0041H22.5Z" fill="#4D4D4D"/>
<path d="M22.5 55.5285V53.0049H20.0004V55.5285H22.5Z" fill="#4D4D4D"/>
<path d="M22.5 58.0529V55.5293H20.0004V58.0529H22.5Z" fill="#4D4D4D"/>
<path d="M25 45.4328V42.9092H22.5004V45.4328H25Z" fill="#262626"/>
<path d="M25 47.9562V45.4326H22.5004V47.9562H25Z" fill="#4D4D4D"/>
<path d="M25 50.4797V47.9561H22.5004V50.4797H25Z" fill="#4D4D4D"/>
<path d="M25 53.0041V50.4805H22.5004V53.0041H25Z" fill="#4D4D4D"/>
<path d="M25 55.5285V53.0049H22.5004V55.5285H25Z" fill="#4D4D4D"/>
<path d="M25 58.052V55.5283H22.5004V58.052H25Z" fill="#4D4D4D"/>
<path d="M25 60.5764V58.0527H22.5004V60.5764H25Z" fill="#4D4D4D"/>
<path d="M27.5 45.4309V42.9072H25.0004V45.4309H27.5Z" fill="#262626"/>
<path d="M27.5 47.9562V45.4326H25.0004V47.9562H27.5Z" fill="#262626"/>
<path d="M27.5 50.4797V47.9561H25.0004V50.4797H27.5Z" fill="#262626"/>
<path d="M27.5 53.0031V50.4795H25.0004V53.0031H27.5Z" fill="#262626"/>
<path d="M27.5 55.5285V53.0049H25.0004V55.5285H27.5Z" fill="#262626"/>
<path d="M27.5 58.052V55.5283H25.0004V58.052H27.5Z" fill="#262626"/>
<path d="M27.5 60.5754V58.0518H25.0004V60.5754H27.5Z" fill="#262626"/>
<path d="M27.5 63.0998V60.5762H25.0004V63.0998H27.5Z" fill="#262626"/>
<path d="M30 45.4328V42.9092H27.5004V45.4328H30Z" fill="#262626"/>
<path d="M30 47.9562V45.4326H27.5004V47.9562H30Z" fill="#4D4D4D"/>
<path d="M30 50.4807V47.957H27.5004V50.4807H30Z" fill="#4D4D4D"/>
<path d="M30 53.0041V50.4805H27.5004V53.0041H30Z" fill="#4D4D4D"/>
<path d="M30 55.5285V53.0049H27.5004V55.5285H30Z" fill="#4D4D4D"/>
<path d="M30 58.0529V55.5293H27.5004V58.0529H30Z" fill="#4D4D4D"/>
<path d="M30 60.5764V58.0527H27.5004V60.5764H30Z" fill="#4D4D4D"/>
<path d="M30 63.0998V60.5762H27.5004V63.0998H30Z" fill="#4D4D4D"/>
<path d="M30 65.6252V63.1016H27.5004V65.6252H30Z" fill="#4D4D4D"/>
<path d="M2.5 35.3352V32.8115H0.000365019V35.3352H2.5Z" fill="black"/>
<path d="M10 42.9074V40.3838H7.50037V42.9074H10Z" fill="black"/>
<path d="M7.5 40.384V37.8604H5.00037V40.384H7.5Z" fill="black"/>
<path d="M5 37.8596V35.3359H2.50037V37.8596H5Z" fill="black"/>
<path d="M40 35.3352V32.8115H37.5004V35.3352H40Z" fill="black"/>
<path d="M32.5 42.9074V40.3838H30.0004V42.9074H32.5Z" fill="black"/>
<path d="M37.5 37.8605V35.3369H35.0004V37.8605H37.5Z" fill="black"/>
<path d="M35 40.384V37.8604H32.5004V40.384H35Z" fill="black"/>
<path d="M14.9996 15.1445H12.5V17.6682H14.9996V15.1445Z" fill="white"/>
<path d="M17.4996 12.6201H15V15.1437H17.4996V12.6201Z" fill="white"/>
<path d="M17.4996 15.1445H15V17.6682H17.4996V15.1445Z" fill="white"/>
<path d="M19.9996 10.0957H17.5V12.6193H19.9996V10.0957Z" fill="white"/>
<path d="M19.9996 12.6201H17.5V15.1437H19.9996V12.6201Z" fill="#C9C9C9"/>
<path d="M22.4996 10.0957H20V12.6193H22.4996V10.0957Z" fill="white"/>
<path d="M22.4996 12.6201H20V15.1437H22.4996V12.6201Z" fill="#C9C9C9"/>
<path d="M19.9996 15.1445H17.5V17.6682H19.9996V15.1445Z" fill="#C9C9C9"/>
<path d="M22.4996 15.1445H20V17.6682H22.4996V15.1445Z" fill="#C9C9C9"/>
<path d="M19.9996 17.668H17.5V20.1916H19.9996V17.668Z" fill="white"/>
<path d="M19.9996 20.1924H17.5V22.716H19.9996V20.1924Z" fill="white"/>
<path d="M22.4996 20.1924H20V22.716H22.4996V20.1924Z" fill="#C9C9C9"/>
<path d="M22.4996 17.668H20V20.1916H22.4996V17.668Z" fill="#C9C9C9"/>
<path d="M19.9996 22.7158H17.5V25.2395H19.9996V22.7158Z" fill="white"/>
<path d="M22.4996 22.7158H20V25.2395H22.4996V22.7158Z" fill="#C9C9C9"/>
<path d="M19.9996 25.2402H17.5V27.7639H19.9996V25.2402Z" fill="white"/>
<path d="M22.4996 25.2402H20V27.7639H22.4996V25.2402Z" fill="#C9C9C9"/>
<path d="M19.9996 27.7646H17.5V30.2883H19.9996V27.7646Z" fill="white"/>
<path d="M22.4996 27.7646H20V30.2883H22.4996V27.7646Z" fill="#C9C9C9"/>
<path d="M19.9996 30.2881H17.5V32.8117H19.9996V30.2881Z" fill="white"/>
<path d="M17.4996 30.2881H15V32.8117H17.4996V30.2881Z" fill="white"/>
<path d="M14.9996 30.2881H12.5V32.8117H14.9996V30.2881Z" fill="white"/>
<path d="M22.4996 30.2881H20V32.8117H22.4996V30.2881Z" fill="white"/>
<path d="M24.9996 30.2881H22.5V32.8117H24.9996V30.2881Z" fill="#C9C9C9"/>
<path d="M27.4996 30.2881H25V32.8117H27.4996V30.2881Z" fill="#C9C9C9"/>
</g>
<defs>
<clipPath id="clip0_1338_14076">
<rect width="40" height="65.625" fill="white"/>
</clipPath>
</defs>
</svg>
