<svg width="65" height="60" viewBox="0 0 65 60" fill="none" xmlns="http://www.w3.org/2000/svg">
<g clip-path="url(#clip0_1045_1610)">
<path d="M25.6852 51.4277H21.4043V55.7137H25.6852V51.4277Z" fill="black"/>
<path d="M29.9664 51.4277H25.6855V55.7137H29.9664V51.4277Z" fill="black"/>
<path d="M34.2477 51.4277H29.9668V55.7137H34.2477V51.4277Z" fill="black"/>
<path d="M34.2477 55.7139H29.9668V59.9998H34.2477V55.7139Z" fill="black"/>
<path d="M38.5289 51.4277H34.248V55.7137H38.5289V51.4277Z" fill="black"/>
<path d="M29.9664 55.7139H25.6855V59.9998H29.9664V55.7139Z" fill="black"/>
<path d="M38.5289 55.7139H34.248V59.9998H38.5289V55.7139Z" fill="black"/>
<path d="M42.8063 51.4277H38.5254V55.7137H42.8063V51.4277Z" fill="black"/>
<path d="M21.4039 47.1426H17.123V51.4285H21.4039V47.1426Z" fill="black"/>
<path d="M25.6852 47.1426H21.4043V51.4285H25.6852V47.1426Z" fill="black"/>
<path d="M29.9664 47.1426H25.6855V51.4285H29.9664V47.1426Z" fill="#1C1C1C"/>
<path d="M34.2477 47.1426H29.9668V51.4285H34.2477V47.1426Z" fill="black"/>
<path d="M38.5289 47.1426H34.248V51.4285H38.5289V47.1426Z" fill="black"/>
<path d="M42.8063 47.1426H38.5254V51.4285H42.8063V47.1426Z" fill="black"/>
<path d="M47.0875 47.1426H42.8066V51.4285H47.0875V47.1426Z" fill="black"/>
<path d="M17.1227 42.8564H12.8418V47.1424H17.1227V42.8564Z" fill="black"/>
<path d="M21.4039 42.8564H17.123V47.1424H21.4039V42.8564Z" fill="black"/>
<path d="M25.6852 42.8564H21.4043V47.1424H25.6852V42.8564Z" fill="#1C1C1C"/>
<path d="M29.9664 42.8564H25.6855V47.1424H29.9664V42.8564Z" fill="#1C1C1C"/>
<path d="M34.2477 42.8564H29.9668V47.1424H34.2477V42.8564Z" fill="black"/>
<path d="M38.5289 42.8564H34.248V47.1424H38.5289V42.8564Z" fill="black"/>
<path d="M42.8063 42.8564H38.5254V47.1424H42.8063V42.8564Z" fill="black"/>
<path d="M47.0875 42.8564H42.8066V47.1424H47.0875V42.8564Z" fill="black"/>
<path d="M51.3688 42.8564H47.0879V47.1424H51.3688V42.8564Z" fill="black"/>
<path d="M12.8434 38.5703H8.5625V42.8562H12.8434V38.5703Z" fill="black"/>
<path d="M17.1227 38.5703H12.8418V42.8562H17.1227V38.5703Z" fill="black"/>
<path d="M21.4039 38.5703H17.123V42.8562H21.4039V38.5703Z" fill="#4D4D4D"/>
<path d="M25.6852 38.5703H21.4043V42.8562H25.6852V38.5703Z" fill="#1C1C1C"/>
<path d="M29.9664 38.5703H25.6855V42.8562H29.9664V38.5703Z" fill="#1C1C1C"/>
<path d="M34.2477 38.5703H29.9668V42.8562H34.2477V38.5703Z" fill="black"/>
<path d="M38.5289 38.5703H34.248V42.8562H38.5289V38.5703Z" fill="black"/>
<path d="M42.8063 38.5703H38.5254V42.8562H42.8063V38.5703Z" fill="black"/>
<path d="M47.0875 38.5703H42.8066V42.8562H47.0875V38.5703Z" fill="black"/>
<path d="M51.3688 38.5703H47.0879V42.8562H51.3688V38.5703Z" fill="black"/>
<path d="M55.6481 38.5703H51.3672V42.8562H55.6481V38.5703Z" fill="black"/>
<path d="M8.56215 34.2871H4.28125V38.573H8.56215V34.2871Z" fill="black"/>
<path d="M12.8434 34.2871H8.5625V38.573H12.8434V34.2871Z" fill="black"/>
<path d="M17.1227 34.2871H12.8418V38.573H17.1227V34.2871Z" fill="#1C1C1C"/>
<path d="M21.4039 34.2871H17.123V38.573H21.4039V34.2871Z" fill="#1C1C1C"/>
<path d="M25.6852 34.2871H21.4043V38.573H25.6852V34.2871Z" fill="#4D4D4D"/>
<path d="M29.9664 34.2871H25.6855V38.573H29.9664V34.2871Z" fill="#4D4D4D"/>
<path d="M34.2477 34.2871H29.9668V38.573H34.2477V34.2871Z" fill="#4D4D4D"/>
<path d="M38.5289 34.2871H34.248V38.573H38.5289V34.2871Z" fill="#4D4D4D"/>
<path d="M42.8063 34.2871H38.5254V38.573H42.8063V34.2871Z" fill="black"/>
<path d="M47.0875 34.2871H42.8066V38.573H47.0875V34.2871Z" fill="black"/>
<path d="M51.3688 34.2871H47.0879V38.573H51.3688V34.2871Z" fill="black"/>
<path d="M55.6481 34.2871H51.3672V38.573H55.6481V34.2871Z" fill="black"/>
<path d="M59.9293 34.2871H55.6484V38.573H59.9293V34.2871Z" fill="black"/>
<path d="M4.2809 30.002H0V34.2879H4.2809V30.002Z" fill="black"/>
<path d="M8.56215 30.002H4.28125V34.2879H8.56215V30.002Z" fill="black"/>
<path d="M12.8434 30.002H8.5625V34.2879H12.8434V30.002Z" fill="#4D4D4D"/>
<path d="M17.1227 30.002H12.8418V34.2879H17.1227V30.002Z" fill="#1C1C1C"/>
<path d="M21.4039 30.002H17.123V34.2879H21.4039V30.002Z" fill="#1C1C1C"/>
<path d="M25.6852 30.002H21.4043V34.2879H25.6852V30.002Z" fill="#4D4D4D"/>
<path d="M29.9664 30.002H25.6855V34.2879H29.9664V30.002Z" fill="#4D4D4D"/>
<path d="M34.2477 30.002H29.9668V34.2879H34.2477V30.002Z" fill="#4D4D4D"/>
<path d="M38.5289 30.002H34.248V34.2879H38.5289V30.002Z" fill="#4D4D4D"/>
<path d="M42.8063 30.002H38.5254V34.2879H42.8063V30.002Z" fill="#4D4D4D"/>
<path d="M47.0875 30.002H42.8066V34.2879H47.0875V30.002Z" fill="black"/>
<path d="M51.3688 30.002H47.0879V34.2879H51.3688V30.002Z" fill="black"/>
<path d="M55.6481 30.002H51.3672V34.2879H55.6481V30.002Z" fill="black"/>
<path d="M59.9293 30.002H55.6484V34.2879H59.9293V30.002Z" fill="black"/>
<path d="M4.2809 25.7158H0V30.0017H4.2809V25.7158Z" fill="black"/>
<path d="M8.56215 25.7158H4.28125V30.0017H8.56215V25.7158Z" fill="#4D4D4D"/>
<path d="M12.8434 25.7158H8.5625V30.0017H12.8434V25.7158Z" fill="#1C1C1C"/>
<path d="M17.1227 25.7158H12.8418V30.0017H17.1227V25.7158Z" fill="#1C1C1C"/>
<path d="M21.4039 25.7158H17.123V30.0017H21.4039V25.7158Z" fill="#4D4D4D"/>
<path d="M25.6852 25.7158H21.4043V30.0017H25.6852V25.7158Z" fill="#4D4D4D"/>
<path d="M29.9664 25.7158H25.6855V30.0017H29.9664V25.7158Z" fill="#4D4D4D"/>
<path d="M34.2477 25.7158H29.9668V30.0017H34.2477V25.7158Z" fill="#4D4D4D"/>
<path d="M38.5289 25.7158H34.248V30.0017H38.5289V25.7158Z" fill="#4D4D4D"/>
<path d="M42.8063 25.7158H38.5254V30.0017H42.8063V25.7158Z" fill="#4D4D4D"/>
<path d="M47.0875 25.7158H42.8066V30.0017H47.0875V25.7158Z" fill="#4D4D4D"/>
<path d="M51.3688 25.7158H47.0879V30.0017H51.3688V25.7158Z" fill="#4D4D4D"/>
<path d="M55.6481 25.7158H51.3672V30.0017H55.6481V25.7158Z" fill="black"/>
<path d="M59.9293 25.7158H55.6484V30.0017H59.9293V25.7158Z" fill="black"/>
<path d="M64.2106 25.7158H59.9297V30.0017H64.2106V25.7158Z" fill="black"/>
<path d="M4.2809 21.4297H0V25.7156H4.2809V21.4297Z" fill="black"/>
<path d="M8.56215 21.4297H4.28125V25.7156H8.56215V21.4297Z" fill="#1C1C1C"/>
<path d="M12.8434 21.4297H8.5625V25.7156H12.8434V21.4297Z" fill="#1C1C1C"/>
<path d="M17.1227 21.4297H12.8418V25.7156H17.1227V21.4297Z" fill="#1C1C1C"/>
<path d="M21.4039 21.4297H17.123V25.7156H21.4039V21.4297Z" fill="white"/>
<path d="M25.6852 21.4297H21.4043V25.7156H25.6852V21.4297Z" fill="#4D4D4D"/>
<path d="M29.9664 21.4297H25.6855V25.7156H29.9664V21.4297Z" fill="#4D4D4D"/>
<path d="M34.2477 21.4297H29.9668V25.7156H34.2477V21.4297Z" fill="#4D4D4D"/>
<path d="M38.5289 21.4297H34.248V25.7156H38.5289V21.4297Z" fill="#4D4D4D"/>
<path d="M42.8063 21.4297H38.5254V25.7156H42.8063V21.4297Z" fill="#4D4D4D"/>
<path d="M47.0875 21.4297H42.8066V25.7156H47.0875V21.4297Z" fill="#4D4D4D"/>
<path d="M51.3688 21.4297H47.0879V25.7156H51.3688V21.4297Z" fill="#4D4D4D"/>
<path d="M55.6481 21.4297H51.3672V25.7156H55.6481V21.4297Z" fill="#4D4D4D"/>
<path d="M59.9293 21.4297H55.6484V25.7156H59.9293V21.4297Z" fill="black"/>
<path d="M64.2106 21.4297H59.9297V25.7156H64.2106V21.4297Z" fill="black"/>
<path d="M4.2809 17.1436H0V21.4295H4.2809V17.1436Z" fill="black"/>
<path d="M8.56215 17.1436H4.28125V21.4295H8.56215V17.1436Z" fill="#1C1C1C"/>
<path d="M12.8434 17.1436H8.5625V21.4295H12.8434V17.1436Z" fill="white"/>
<path d="M17.1227 17.1436H12.8418V21.4295H17.1227V17.1436Z" fill="#1C1C1C"/>
<path d="M21.4039 17.1436H17.123V21.4295H21.4039V17.1436Z" fill="#4D4D4D"/>
<path d="M25.6852 17.1436H21.4043V21.4295H25.6852V17.1436Z" fill="#4D4D4D"/>
<path d="M29.9664 17.1436H25.6855V21.4295H29.9664V17.1436Z" fill="#4D4D4D"/>
<path d="M34.2477 17.1436H29.9668V21.4295H34.2477V17.1436Z" fill="#4D4D4D"/>
<path d="M38.5289 17.1436H34.248V21.4295H38.5289V17.1436Z" fill="#4D4D4D"/>
<path d="M42.8063 17.1436H38.5254V21.4295H42.8063V17.1436Z" fill="#4D4D4D"/>
<path d="M47.0875 17.1436H42.8066V21.4295H47.0875V17.1436Z" fill="#4D4D4D"/>
<path d="M51.3688 17.1436H47.0879V21.4295H51.3688V17.1436Z" fill="#4D4D4D"/>
<path d="M55.6481 17.1436H51.3672V21.4295H55.6481V17.1436Z" fill="#4D4D4D"/>
<path d="M59.9293 17.1436H55.6484V21.4295H59.9293V17.1436Z" fill="#4D4D4D"/>
<path d="M64.2106 17.1436H59.9297V21.4295H64.2106V17.1436Z" fill="black"/>
<path d="M4.2809 12.8574H0V17.1433H4.2809V12.8574Z" fill="black"/>
<path d="M8.56215 12.8574H4.28125V17.1433H8.56215V12.8574Z" fill="#1C1C1C"/>
<path d="M12.8434 12.8574H8.5625V17.1433H12.8434V12.8574Z" fill="#1C1C1C"/>
<path d="M17.1227 12.8574H12.8418V17.1433H17.1227V12.8574Z" fill="white"/>
<path d="M21.4039 12.8574H17.123V17.1433H21.4039V12.8574Z" fill="#4D4D4D"/>
<path d="M25.6852 12.8574H21.4043V17.1433H25.6852V12.8574Z" fill="#4D4D4D"/>
<path d="M29.9664 12.8574H25.6855V17.1433H29.9664V12.8574Z" fill="#4D4D4D"/>
<path d="M34.2477 12.8574H29.9668V17.1433H34.2477V12.8574Z" fill="#4D4D4D"/>
<path d="M38.5289 12.8574H34.248V17.1433H38.5289V12.8574Z" fill="#4D4D4D"/>
<path d="M42.8063 12.8574H38.5254V17.1433H42.8063V12.8574Z" fill="#4D4D4D"/>
<path d="M47.0875 12.8574H42.8066V17.1433H47.0875V12.8574Z" fill="#4D4D4D"/>
<path d="M51.3688 12.8574H47.0879V17.1433H51.3688V12.8574Z" fill="#4D4D4D"/>
<path d="M55.6481 12.8574H51.3672V17.1433H55.6481V12.8574Z" fill="#4D4D4D"/>
<path d="M59.9293 12.8574H55.6484V17.1433H59.9293V12.8574Z" fill="#4D4D4D"/>
<path d="M64.2106 12.8574H59.9297V17.1433H64.2106V12.8574Z" fill="black"/>
<path d="M4.2809 8.57227H0V12.8582H4.2809V8.57227Z" fill="black"/>
<path d="M8.56215 8.57227H4.28125V12.8582H8.56215V8.57227Z" fill="black"/>
<path d="M12.8434 8.57227H8.5625V12.8582H12.8434V8.57227Z" fill="#1C1C1C"/>
<path d="M17.1227 8.57227H12.8418V12.8582H17.1227V8.57227Z" fill="white"/>
<path d="M21.4039 8.57227H17.123V12.8582H21.4039V8.57227Z" fill="#4D4D4D"/>
<path d="M25.6852 8.57227H21.4043V12.8582H25.6852V8.57227Z" fill="#4D4D4D"/>
<path d="M29.9664 8.57227H25.6855V12.8582H29.9664V8.57227Z" fill="#4D4D4D"/>
<path d="M34.2477 8.57227H29.9668V12.8582H34.2477V8.57227Z" fill="black"/>
<path d="M38.5289 8.57227H34.248V12.8582H38.5289V8.57227Z" fill="#4D4D4D"/>
<path d="M42.8063 8.57227H38.5254V12.8582H42.8063V8.57227Z" fill="#4D4D4D"/>
<path d="M47.0875 8.57227H42.8066V12.8582H47.0875V8.57227Z" fill="#4D4D4D"/>
<path d="M51.3688 8.57227H47.0879V12.8582H51.3688V8.57227Z" fill="#4D4D4D"/>
<path d="M55.6481 8.57227H51.3672V12.8582H55.6481V8.57227Z" fill="#4D4D4D"/>
<path d="M59.9293 8.57227H55.6484V12.8582H59.9293V8.57227Z" fill="black"/>
<path d="M64.2106 8.57227H59.9297V12.8582H64.2106V8.57227Z" fill="black"/>
<path d="M8.56215 4.28613H4.28125V8.57206H8.56215V4.28613Z" fill="black"/>
<path d="M12.8434 4.28613H8.5625V8.57206H12.8434V4.28613Z" fill="black"/>
<path d="M17.1227 4.28613H12.8418V8.57206H17.1227V4.28613Z" fill="#1C1C1C"/>
<path d="M21.4039 4.28613H17.123V8.57206H21.4039V4.28613Z" fill="#4D4D4D"/>
<path d="M25.6852 4.28613H21.4043V8.57206H25.6852V4.28613Z" fill="#4D4D4D"/>
<path d="M29.9664 4.28613H25.6855V8.57206H29.9664V4.28613Z" fill="black"/>
<path d="M34.2477 4.28613H29.9668V8.57206H34.2477V4.28613Z" fill="black"/>
<path d="M38.5289 4.28613H34.248V8.57206H38.5289V4.28613Z" fill="black"/>
<path d="M42.8063 4.28613H38.5254V8.57206H42.8063V4.28613Z" fill="#4D4D4D"/>
<path d="M47.0875 4.28613H42.8066V8.57206H47.0875V4.28613Z" fill="#4D4D4D"/>
<path d="M51.3688 4.28613H47.0879V8.57206H51.3688V4.28613Z" fill="#4D4D4D"/>
<path d="M55.6481 4.28613H51.3672V8.57206H55.6481V4.28613Z" fill="black"/>
<path d="M59.9293 4.28613H55.6484V8.57206H59.9293V4.28613Z" fill="black"/>
<path d="M12.8434 0H8.5625V4.28592H12.8434V0Z" fill="black"/>
<path d="M17.1227 0H12.8418V4.28592H17.1227V0Z" fill="black"/>
<path d="M21.4039 0H17.123V4.28592H21.4039V0Z" fill="black"/>
<path d="M25.6852 0H21.4043V4.28592H25.6852V0Z" fill="black"/>
<path d="M29.9664 0H25.6855V4.28592H29.9664V0Z" fill="black"/>
<path d="M38.5289 0H34.248V4.28592H38.5289V0Z" fill="black"/>
<path d="M42.8063 0H38.5254V4.28592H42.8063V0Z" fill="black"/>
<path d="M47.0875 0H42.8066V4.28592H47.0875V0Z" fill="black"/>
<path d="M51.3688 0H47.0879V4.28592H51.3688V0Z" fill="black"/>
<path d="M55.6481 0H51.3672V4.28592H55.6481V0Z" fill="black"/>
</g>
<defs>
<clipPath id="clip0_1045_1610">
<rect width="64.2105" height="60" fill="white"/>
</clipPath>
</defs>
</svg>
