<svg width="79" height="74" viewBox="0 0 79 74" fill="none" xmlns="http://www.w3.org/2000/svg">
<g clip-path="url(#clip0_1045_1613)">
<path d="M31.6009 63.4277H26.334V68.7137H31.6009V63.4277Z" fill="black"/>
<path d="M36.8685 63.4277H31.6016V68.7137H36.8685V63.4277Z" fill="black"/>
<path d="M42.136 63.4277H36.8691V68.7137H42.136V63.4277Z" fill="black"/>
<path d="M42.136 68.7139H36.8691V73.9998H42.136V68.7139Z" fill="black"/>
<path d="M47.4017 63.4277H42.1348V68.7137H47.4017V63.4277Z" fill="black"/>
<path d="M36.8685 68.7139H31.6016V73.9998H36.8685V68.7139Z" fill="black"/>
<path d="M47.4017 68.7139H42.1348V73.9998H47.4017V68.7139Z" fill="black"/>
<path d="M52.6653 63.4277H47.3984V68.7137H52.6653V63.4277Z" fill="black"/>
<path d="M26.3353 58.1416H21.0684V63.4276H26.3353V58.1416Z" fill="black"/>
<path d="M31.6009 58.1416H26.334V63.4276H31.6009V58.1416Z" fill="black"/>
<path d="M36.8685 58.1416H31.6016V63.4276H36.8685V58.1416Z" fill="#1C1C1C"/>
<path d="M42.136 58.1416H36.8691V63.4276H42.136V58.1416Z" fill="black"/>
<path d="M47.4017 58.1416H42.1348V63.4276H47.4017V58.1416Z" fill="black"/>
<path d="M52.6653 58.1416H47.3984V63.4276H52.6653V58.1416Z" fill="black"/>
<path d="M57.9329 58.1416H52.666V63.4276H57.9329V58.1416Z" fill="black"/>
<path d="M21.0677 52.8564H15.8008V58.1424H21.0677V52.8564Z" fill="black"/>
<path d="M26.3353 52.8564H21.0684V58.1424H26.3353V52.8564Z" fill="black"/>
<path d="M31.6009 52.8564H26.334V58.1424H31.6009V52.8564Z" fill="#1C1C1C"/>
<path d="M36.8685 52.8564H31.6016V58.1424H36.8685V52.8564Z" fill="#1C1C1C"/>
<path d="M42.136 52.8564H36.8691V58.1424H42.136V52.8564Z" fill="black"/>
<path d="M47.4017 52.8564H42.1348V58.1424H47.4017V52.8564Z" fill="black"/>
<path d="M52.6653 52.8564H47.3984V58.1424H52.6653V52.8564Z" fill="black"/>
<path d="M57.9329 52.8564H52.666V58.1424H57.9329V52.8564Z" fill="black"/>
<path d="M63.1986 52.8564H57.9316V58.1424H63.1986V52.8564Z" fill="black"/>
<path d="M15.8001 47.5703H10.5332V52.8563H15.8001V47.5703Z" fill="black"/>
<path d="M21.0677 47.5703H15.8008V52.8563H21.0677V47.5703Z" fill="black"/>
<path d="M26.3353 47.5703H21.0684V52.8563H26.3353V47.5703Z" fill="#4D4D4D"/>
<path d="M31.6009 47.5703H26.334V52.8563H31.6009V47.5703Z" fill="#1C1C1C"/>
<path d="M36.8685 47.5703H31.6016V52.8563H36.8685V47.5703Z" fill="#1C1C1C"/>
<path d="M42.136 47.5703H36.8691V52.8563H42.136V47.5703Z" fill="black"/>
<path d="M47.4017 47.5703H42.1348V52.8563H47.4017V47.5703Z" fill="black"/>
<path d="M52.6653 47.5703H47.3984V52.8563H52.6653V47.5703Z" fill="black"/>
<path d="M57.9329 47.5703H52.666V52.8563H57.9329V47.5703Z" fill="black"/>
<path d="M63.1986 47.5703H57.9316V52.8563H63.1986V47.5703Z" fill="black"/>
<path d="M68.4661 47.5703H63.1992V52.8563H68.4661V47.5703Z" fill="black"/>
<path d="M10.5345 42.2881H5.26758V47.5741H10.5345V42.2881Z" fill="black"/>
<path d="M15.8001 42.2881H10.5332V47.5741H15.8001V42.2881Z" fill="black"/>
<path d="M21.0677 42.2881H15.8008V47.5741H21.0677V42.2881Z" fill="#1C1C1C"/>
<path d="M26.3353 42.2881H21.0684V47.5741H26.3353V42.2881Z" fill="#1C1C1C"/>
<path d="M31.6009 42.2881H26.334V47.5741H31.6009V42.2881Z" fill="#4D4D4D"/>
<path d="M36.8685 42.2881H31.6016V47.5741H36.8685V42.2881Z" fill="#4D4D4D"/>
<path d="M42.136 42.2881H36.8691V47.5741H42.136V42.2881Z" fill="#4D4D4D"/>
<path d="M47.4017 42.2881H42.1348V47.5741H47.4017V42.2881Z" fill="#4D4D4D"/>
<path d="M52.6653 42.2881H47.3984V47.5741H52.6653V42.2881Z" fill="black"/>
<path d="M57.9329 42.2881H52.666V47.5741H57.9329V42.2881Z" fill="black"/>
<path d="M63.1986 42.2881H57.9316V47.5741H63.1986V42.2881Z" fill="black"/>
<path d="M68.4661 42.2881H63.1992V47.5741H68.4661V42.2881Z" fill="black"/>
<path d="M73.7337 42.2881H68.4668V47.5741H73.7337V42.2881Z" fill="black"/>
<path d="M5.26691 37.002H0V42.2879H5.26691V37.002Z" fill="black"/>
<path d="M10.5345 37.002H5.26758V42.2879H10.5345V37.002Z" fill="black"/>
<path d="M15.8001 37.002H10.5332V42.2879H15.8001V37.002Z" fill="#4D4D4D"/>
<path d="M21.0677 37.002H15.8008V42.2879H21.0677V37.002Z" fill="#1C1C1C"/>
<path d="M26.3353 37.002H21.0684V42.2879H26.3353V37.002Z" fill="#1C1C1C"/>
<path d="M31.6009 37.002H26.334V42.2879H31.6009V37.002Z" fill="#4D4D4D"/>
<path d="M36.8685 37.002H31.6016V42.2879H36.8685V37.002Z" fill="#4D4D4D"/>
<path d="M42.136 37.002H36.8691V42.2879H42.136V37.002Z" fill="#4D4D4D"/>
<path d="M47.4017 37.002H42.1348V42.2879H47.4017V37.002Z" fill="#4D4D4D"/>
<path d="M52.6653 37.002H47.3984V42.2879H52.6653V37.002Z" fill="#4D4D4D"/>
<path d="M57.9329 37.002H52.666V42.2879H57.9329V37.002Z" fill="black"/>
<path d="M63.1986 37.002H57.9316V42.2879H63.1986V37.002Z" fill="black"/>
<path d="M68.4661 37.002H63.1992V42.2879H68.4661V37.002Z" fill="black"/>
<path d="M73.7337 37.002H68.4668V42.2879H73.7337V37.002Z" fill="black"/>
<path d="M5.26691 31.7158H0V37.0018H5.26691V31.7158Z" fill="black"/>
<path d="M10.5345 31.7158H5.26758V37.0018H10.5345V31.7158Z" fill="#4D4D4D"/>
<path d="M15.8001 31.7158H10.5332V37.0018H15.8001V31.7158Z" fill="#1C1C1C"/>
<path d="M21.0677 31.7158H15.8008V37.0018H21.0677V31.7158Z" fill="#1C1C1C"/>
<path d="M26.3353 31.7158H21.0684V37.0018H26.3353V31.7158Z" fill="#4D4D4D"/>
<path d="M31.6009 31.7158H26.334V37.0018H31.6009V31.7158Z" fill="#4D4D4D"/>
<path d="M36.8685 31.7158H31.6016V37.0018H36.8685V31.7158Z" fill="#4D4D4D"/>
<path d="M42.136 31.7158H36.8691V37.0018H42.136V31.7158Z" fill="#4D4D4D"/>
<path d="M47.4017 31.7158H42.1348V37.0018H47.4017V31.7158Z" fill="#4D4D4D"/>
<path d="M52.6653 31.7158H47.3984V37.0018H52.6653V31.7158Z" fill="#4D4D4D"/>
<path d="M57.9329 31.7158H52.666V37.0018H57.9329V31.7158Z" fill="#4D4D4D"/>
<path d="M63.1986 31.7158H57.9316V37.0018H63.1986V31.7158Z" fill="#4D4D4D"/>
<path d="M68.4661 31.7158H63.1992V37.0018H68.4661V31.7158Z" fill="black"/>
<path d="M73.7337 31.7158H68.4668V37.0018H73.7337V31.7158Z" fill="black"/>
<path d="M78.9993 31.7158H73.7324V37.0018H78.9993V31.7158Z" fill="black"/>
<path d="M5.26691 26.4297H0V31.7157H5.26691V26.4297Z" fill="black"/>
<path d="M10.5345 26.4297H5.26758V31.7157H10.5345V26.4297Z" fill="#1C1C1C"/>
<path d="M15.8001 26.4297H10.5332V31.7157H15.8001V26.4297Z" fill="#1C1C1C"/>
<path d="M21.0677 26.4297H15.8008V31.7157H21.0677V26.4297Z" fill="#1C1C1C"/>
<path d="M26.3353 26.4297H21.0684V31.7157H26.3353V26.4297Z" fill="white"/>
<path d="M31.6009 26.4297H26.334V31.7157H31.6009V26.4297Z" fill="#4D4D4D"/>
<path d="M36.8685 26.4297H31.6016V31.7157H36.8685V26.4297Z" fill="#4D4D4D"/>
<path d="M42.136 26.4297H36.8691V31.7157H42.136V26.4297Z" fill="#4D4D4D"/>
<path d="M47.4017 26.4297H42.1348V31.7157H47.4017V26.4297Z" fill="#4D4D4D"/>
<path d="M52.6653 26.4297H47.3984V31.7157H52.6653V26.4297Z" fill="#4D4D4D"/>
<path d="M57.9329 26.4297H52.666V31.7157H57.9329V26.4297Z" fill="#4D4D4D"/>
<path d="M63.1986 26.4297H57.9316V31.7157H63.1986V26.4297Z" fill="#4D4D4D"/>
<path d="M68.4661 26.4297H63.1992V31.7157H68.4661V26.4297Z" fill="#4D4D4D"/>
<path d="M73.7337 26.4297H68.4668V31.7157H73.7337V26.4297Z" fill="black"/>
<path d="M78.9993 26.4297H73.7324V31.7157H78.9993V26.4297Z" fill="black"/>
<path d="M5.26691 21.1436H0V26.4295H5.26691V21.1436Z" fill="black"/>
<path d="M10.5345 21.1436H5.26758V26.4295H10.5345V21.1436Z" fill="#1C1C1C"/>
<path d="M15.8001 21.1436H10.5332V26.4295H15.8001V21.1436Z" fill="white"/>
<path d="M21.0677 21.1436H15.8008V26.4295H21.0677V21.1436Z" fill="#1C1C1C"/>
<path d="M26.3353 21.1436H21.0684V26.4295H26.3353V21.1436Z" fill="#4D4D4D"/>
<path d="M31.6009 21.1436H26.334V26.4295H31.6009V21.1436Z" fill="#4D4D4D"/>
<path d="M36.8685 21.1436H31.6016V26.4295H36.8685V21.1436Z" fill="#4D4D4D"/>
<path d="M42.136 21.1436H36.8691V26.4295H42.136V21.1436Z" fill="#4D4D4D"/>
<path d="M47.4017 21.1436H42.1348V26.4295H47.4017V21.1436Z" fill="#4D4D4D"/>
<path d="M52.6653 21.1436H47.3984V26.4295H52.6653V21.1436Z" fill="#4D4D4D"/>
<path d="M57.9329 21.1436H52.666V26.4295H57.9329V21.1436Z" fill="#4D4D4D"/>
<path d="M63.1986 21.1436H57.9316V26.4295H63.1986V21.1436Z" fill="#4D4D4D"/>
<path d="M68.4661 21.1436H63.1992V26.4295H68.4661V21.1436Z" fill="#4D4D4D"/>
<path d="M73.7337 21.1436H68.4668V26.4295H73.7337V21.1436Z" fill="#4D4D4D"/>
<path d="M78.9993 21.1436H73.7324V26.4295H78.9993V21.1436Z" fill="black"/>
<path d="M5.26691 15.8584H0V21.1444H5.26691V15.8584Z" fill="black"/>
<path d="M10.5345 15.8584H5.26758V21.1444H10.5345V15.8584Z" fill="#1C1C1C"/>
<path d="M15.8001 15.8584H10.5332V21.1444H15.8001V15.8584Z" fill="#1C1C1C"/>
<path d="M21.0677 15.8584H15.8008V21.1444H21.0677V15.8584Z" fill="white"/>
<path d="M26.3353 15.8584H21.0684V21.1444H26.3353V15.8584Z" fill="#4D4D4D"/>
<path d="M31.6009 15.8584H26.334V21.1444H31.6009V15.8584Z" fill="#4D4D4D"/>
<path d="M36.8685 15.8584H31.6016V21.1444H36.8685V15.8584Z" fill="#4D4D4D"/>
<path d="M42.136 15.8584H36.8691V21.1444H42.136V15.8584Z" fill="#4D4D4D"/>
<path d="M47.4017 15.8584H42.1348V21.1444H47.4017V15.8584Z" fill="#4D4D4D"/>
<path d="M52.6653 15.8584H47.3984V21.1444H52.6653V15.8584Z" fill="#4D4D4D"/>
<path d="M57.9329 15.8584H52.666V21.1444H57.9329V15.8584Z" fill="#4D4D4D"/>
<path d="M63.1986 15.8584H57.9316V21.1444H63.1986V15.8584Z" fill="#4D4D4D"/>
<path d="M68.4661 15.8584H63.1992V21.1444H68.4661V15.8584Z" fill="#4D4D4D"/>
<path d="M73.7337 15.8584H68.4668V21.1444H73.7337V15.8584Z" fill="#4D4D4D"/>
<path d="M78.9993 15.8584H73.7324V21.1444H78.9993V15.8584Z" fill="black"/>
<path d="M5.26691 10.5723H0V15.8582H5.26691V10.5723Z" fill="black"/>
<path d="M10.5345 10.5723H5.26758V15.8582H10.5345V10.5723Z" fill="black"/>
<path d="M15.8001 10.5723H10.5332V15.8582H15.8001V10.5723Z" fill="#1C1C1C"/>
<path d="M21.0677 10.5723H15.8008V15.8582H21.0677V10.5723Z" fill="white"/>
<path d="M26.3353 10.5723H21.0684V15.8582H26.3353V10.5723Z" fill="#4D4D4D"/>
<path d="M31.6009 10.5723H26.334V15.8582H31.6009V10.5723Z" fill="#4D4D4D"/>
<path d="M36.8685 10.5723H31.6016V15.8582H36.8685V10.5723Z" fill="#4D4D4D"/>
<path d="M42.136 10.5723H36.8691V15.8582H42.136V10.5723Z" fill="black"/>
<path d="M47.4017 10.5723H42.1348V15.8582H47.4017V10.5723Z" fill="#4D4D4D"/>
<path d="M52.6653 10.5723H47.3984V15.8582H52.6653V10.5723Z" fill="#4D4D4D"/>
<path d="M57.9329 10.5723H52.666V15.8582H57.9329V10.5723Z" fill="#4D4D4D"/>
<path d="M63.1986 10.5723H57.9316V15.8582H63.1986V10.5723Z" fill="#4D4D4D"/>
<path d="M68.4661 10.5723H63.1992V15.8582H68.4661V10.5723Z" fill="#4D4D4D"/>
<path d="M73.7337 10.5723H68.4668V15.8582H73.7337V10.5723Z" fill="black"/>
<path d="M78.9993 10.5723H73.7324V15.8582H78.9993V10.5723Z" fill="black"/>
<path d="M10.5345 5.28613H5.26758V10.5721H10.5345V5.28613Z" fill="black"/>
<path d="M15.8001 5.28613H10.5332V10.5721H15.8001V5.28613Z" fill="black"/>
<path d="M21.0677 5.28613H15.8008V10.5721H21.0677V5.28613Z" fill="#1C1C1C"/>
<path d="M26.3353 5.28613H21.0684V10.5721H26.3353V5.28613Z" fill="#4D4D4D"/>
<path d="M31.6009 5.28613H26.334V10.5721H31.6009V5.28613Z" fill="#4D4D4D"/>
<path d="M36.8685 5.28613H31.6016V10.5721H36.8685V5.28613Z" fill="black"/>
<path d="M42.136 5.28613H36.8691V10.5721H42.136V5.28613Z" fill="black"/>
<path d="M47.4017 5.28613H42.1348V10.5721H47.4017V5.28613Z" fill="black"/>
<path d="M52.6653 5.28613H47.3984V10.5721H52.6653V5.28613Z" fill="#4D4D4D"/>
<path d="M57.9329 5.28613H52.666V10.5721H57.9329V5.28613Z" fill="#4D4D4D"/>
<path d="M63.1986 5.28613H57.9316V10.5721H63.1986V5.28613Z" fill="#4D4D4D"/>
<path d="M68.4661 5.28613H63.1992V10.5721H68.4661V5.28613Z" fill="black"/>
<path d="M73.7337 5.28613H68.4668V10.5721H73.7337V5.28613Z" fill="black"/>
<path d="M15.8001 0H10.5332V5.28597H15.8001V0Z" fill="black"/>
<path d="M21.0677 0H15.8008V5.28597H21.0677V0Z" fill="black"/>
<path d="M26.3353 0H21.0684V5.28597H26.3353V0Z" fill="black"/>
<path d="M31.6009 0H26.334V5.28597H31.6009V0Z" fill="black"/>
<path d="M36.8685 0H31.6016V5.28597H36.8685V0Z" fill="black"/>
<path d="M47.4017 0H42.1348V5.28597H47.4017V0Z" fill="black"/>
<path d="M52.6653 0H47.3984V5.28597H52.6653V0Z" fill="black"/>
<path d="M57.9329 0H52.666V5.28597H57.9329V0Z" fill="black"/>
<path d="M63.1986 0H57.9316V5.28597H63.1986V0Z" fill="black"/>
<path d="M68.4661 0H63.1992V5.28597H68.4661V0Z" fill="black"/>
</g>
<defs>
<clipPath id="clip0_1045_1613">
<rect width="79" height="74" fill="white"/>
</clipPath>
</defs>
</svg>
