<svg width="49" height="46" viewBox="0 0 49 46" fill="none" xmlns="http://www.w3.org/2000/svg">
<g clip-path="url(#clip0_1045_1614)">
<path d="M19.6008 39.4287H16.334V42.7146H19.6008V39.4287Z" fill="black"/>
<path d="M22.8684 39.4287H19.6016V42.7146H22.8684V39.4287Z" fill="black"/>
<path d="M26.134 39.4287H22.8672V42.7146H26.134V39.4287Z" fill="black"/>
<path d="M26.134 42.7139H22.8672V45.9997H26.134V42.7139Z" fill="black"/>
<path d="M29.4016 39.4287H26.1348V42.7146H29.4016V39.4287Z" fill="black"/>
<path d="M22.8684 42.7139H19.6016V45.9997H22.8684V42.7139Z" fill="black"/>
<path d="M29.4016 42.7139H26.1348V45.9997H29.4016V42.7139Z" fill="black"/>
<path d="M32.6653 39.4287H29.3984V42.7146H32.6653V39.4287Z" fill="black"/>
<path d="M16.3332 36.1426H13.0664V39.4285H16.3332V36.1426Z" fill="black"/>
<path d="M19.6008 36.1426H16.334V39.4285H19.6008V36.1426Z" fill="black"/>
<path d="M22.8684 36.1426H19.6016V39.4285H22.8684V36.1426Z" fill="#1C1C1C"/>
<path d="M26.134 36.1426H22.8672V39.4285H26.134V36.1426Z" fill="black"/>
<path d="M29.4016 36.1426H26.1348V39.4285H29.4016V36.1426Z" fill="black"/>
<path d="M32.6653 36.1426H29.3984V39.4285H32.6653V36.1426Z" fill="black"/>
<path d="M35.9328 36.1426H32.666V39.4285H35.9328V36.1426Z" fill="black"/>
<path d="M13.0676 32.8564H9.80078V36.1423H13.0676V32.8564Z" fill="black"/>
<path d="M16.3332 32.8564H13.0664V36.1423H16.3332V32.8564Z" fill="black"/>
<path d="M19.6008 32.8564H16.334V36.1423H19.6008V32.8564Z" fill="#1C1C1C"/>
<path d="M22.8684 32.8564H19.6016V36.1423H22.8684V32.8564Z" fill="#1C1C1C"/>
<path d="M26.134 32.8564H22.8672V36.1423H26.134V32.8564Z" fill="black"/>
<path d="M29.4016 32.8564H26.1348V36.1423H29.4016V32.8564Z" fill="black"/>
<path d="M32.6653 32.8564H29.3984V36.1423H32.6653V32.8564Z" fill="black"/>
<path d="M35.9328 32.8564H32.666V36.1423H35.9328V32.8564Z" fill="black"/>
<path d="M39.2004 32.8564H35.9336V36.1423H39.2004V32.8564Z" fill="black"/>
<path d="M9.80002 29.5703H6.5332V32.8562H9.80002V29.5703Z" fill="black"/>
<path d="M13.0676 29.5703H9.80078V32.8562H13.0676V29.5703Z" fill="black"/>
<path d="M16.3332 29.5703H13.0664V32.8562H16.3332V29.5703Z" fill="#4D4D4D"/>
<path d="M19.6008 29.5703H16.334V32.8562H19.6008V29.5703Z" fill="#1C1C1C"/>
<path d="M22.8684 29.5703H19.6016V32.8562H22.8684V29.5703Z" fill="#1C1C1C"/>
<path d="M26.134 29.5703H22.8672V32.8562H26.134V29.5703Z" fill="black"/>
<path d="M29.4016 29.5703H26.1348V32.8562H29.4016V29.5703Z" fill="black"/>
<path d="M32.6653 29.5703H29.3984V32.8562H32.6653V29.5703Z" fill="black"/>
<path d="M35.9328 29.5703H32.666V32.8562H35.9328V29.5703Z" fill="black"/>
<path d="M39.2004 29.5703H35.9336V32.8562H39.2004V29.5703Z" fill="black"/>
<path d="M42.466 29.5703H39.1992V32.8562H42.466V29.5703Z" fill="black"/>
<path d="M6.53439 26.2871H3.26758V29.573H6.53439V26.2871Z" fill="black"/>
<path d="M9.80002 26.2871H6.5332V29.573H9.80002V26.2871Z" fill="black"/>
<path d="M13.0676 26.2871H9.80078V29.573H13.0676V26.2871Z" fill="#1C1C1C"/>
<path d="M16.3332 26.2871H13.0664V29.573H16.3332V26.2871Z" fill="#1C1C1C"/>
<path d="M19.6008 26.2871H16.334V29.573H19.6008V26.2871Z" fill="#4D4D4D"/>
<path d="M22.8684 26.2871H19.6016V29.573H22.8684V26.2871Z" fill="#4D4D4D"/>
<path d="M26.134 26.2871H22.8672V29.573H26.134V26.2871Z" fill="#4D4D4D"/>
<path d="M29.4016 26.2871H26.1348V29.573H29.4016V26.2871Z" fill="#4D4D4D"/>
<path d="M32.6653 26.2871H29.3984V29.573H32.6653V26.2871Z" fill="black"/>
<path d="M35.9328 26.2871H32.666V29.573H35.9328V26.2871Z" fill="black"/>
<path d="M39.2004 26.2871H35.9336V29.573H39.2004V26.2871Z" fill="black"/>
<path d="M42.466 26.2871H39.1992V29.573H42.466V26.2871Z" fill="black"/>
<path d="M45.7336 26.2871H42.4668V29.573H45.7336V26.2871Z" fill="black"/>
<path d="M3.26682 23.001H0V26.2869H3.26682V23.001Z" fill="black"/>
<path d="M6.53439 23.001H3.26758V26.2869H6.53439V23.001Z" fill="black"/>
<path d="M9.80002 23.001H6.5332V26.2869H9.80002V23.001Z" fill="#4D4D4D"/>
<path d="M13.0676 23.001H9.80078V26.2869H13.0676V23.001Z" fill="#1C1C1C"/>
<path d="M16.3332 23.001H13.0664V26.2869H16.3332V23.001Z" fill="#1C1C1C"/>
<path d="M19.6008 23.001H16.334V26.2869H19.6008V23.001Z" fill="#4D4D4D"/>
<path d="M22.8684 23.001H19.6016V26.2869H22.8684V23.001Z" fill="#4D4D4D"/>
<path d="M26.134 23.001H22.8672V26.2869H26.134V23.001Z" fill="#4D4D4D"/>
<path d="M29.4016 23.001H26.1348V26.2869H29.4016V23.001Z" fill="#4D4D4D"/>
<path d="M32.6653 23.001H29.3984V26.2869H32.6653V23.001Z" fill="#4D4D4D"/>
<path d="M35.9328 23.001H32.666V26.2869H35.9328V23.001Z" fill="black"/>
<path d="M39.2004 23.001H35.9336V26.2869H39.2004V23.001Z" fill="black"/>
<path d="M42.466 23.001H39.1992V26.2869H42.466V23.001Z" fill="black"/>
<path d="M45.7336 23.001H42.4668V26.2869H45.7336V23.001Z" fill="black"/>
<path d="M3.26682 19.7148H0V23.0007H3.26682V19.7148Z" fill="black"/>
<path d="M6.53439 19.7148H3.26758V23.0007H6.53439V19.7148Z" fill="#4D4D4D"/>
<path d="M9.80002 19.7148H6.5332V23.0007H9.80002V19.7148Z" fill="#1C1C1C"/>
<path d="M13.0676 19.7148H9.80078V23.0007H13.0676V19.7148Z" fill="#1C1C1C"/>
<path d="M16.3332 19.7148H13.0664V23.0007H16.3332V19.7148Z" fill="#4D4D4D"/>
<path d="M19.6008 19.7148H16.334V23.0007H19.6008V19.7148Z" fill="#4D4D4D"/>
<path d="M22.8684 19.7148H19.6016V23.0007H22.8684V19.7148Z" fill="#4D4D4D"/>
<path d="M26.134 19.7148H22.8672V23.0007H26.134V19.7148Z" fill="#4D4D4D"/>
<path d="M29.4016 19.7148H26.1348V23.0007H29.4016V19.7148Z" fill="#4D4D4D"/>
<path d="M32.6653 19.7148H29.3984V23.0007H32.6653V19.7148Z" fill="#4D4D4D"/>
<path d="M35.9328 19.7148H32.666V23.0007H35.9328V19.7148Z" fill="#4D4D4D"/>
<path d="M39.2004 19.7148H35.9336V23.0007H39.2004V19.7148Z" fill="#4D4D4D"/>
<path d="M42.466 19.7148H39.1992V23.0007H42.466V19.7148Z" fill="black"/>
<path d="M45.7336 19.7148H42.4668V23.0007H45.7336V19.7148Z" fill="black"/>
<path d="M48.9992 19.7148H45.7324V23.0007H48.9992V19.7148Z" fill="black"/>
<path d="M3.26682 16.4297H0V19.7156H3.26682V16.4297Z" fill="black"/>
<path d="M6.53439 16.4297H3.26758V19.7156H6.53439V16.4297Z" fill="#1C1C1C"/>
<path d="M9.80002 16.4297H6.5332V19.7156H9.80002V16.4297Z" fill="#1C1C1C"/>
<path d="M13.0676 16.4297H9.80078V19.7156H13.0676V16.4297Z" fill="#1C1C1C"/>
<path d="M16.3332 16.4297H13.0664V19.7156H16.3332V16.4297Z" fill="white"/>
<path d="M19.6008 16.4297H16.334V19.7156H19.6008V16.4297Z" fill="#4D4D4D"/>
<path d="M22.8684 16.4297H19.6016V19.7156H22.8684V16.4297Z" fill="#4D4D4D"/>
<path d="M26.134 16.4297H22.8672V19.7156H26.134V16.4297Z" fill="#4D4D4D"/>
<path d="M29.4016 16.4297H26.1348V19.7156H29.4016V16.4297Z" fill="#4D4D4D"/>
<path d="M32.6653 16.4297H29.3984V19.7156H32.6653V16.4297Z" fill="#4D4D4D"/>
<path d="M35.9328 16.4297H32.666V19.7156H35.9328V16.4297Z" fill="#4D4D4D"/>
<path d="M39.2004 16.4297H35.9336V19.7156H39.2004V16.4297Z" fill="#4D4D4D"/>
<path d="M42.466 16.4297H39.1992V19.7156H42.466V16.4297Z" fill="#4D4D4D"/>
<path d="M45.7336 16.4297H42.4668V19.7156H45.7336V16.4297Z" fill="black"/>
<path d="M48.9992 16.4297H45.7324V19.7156H48.9992V16.4297Z" fill="black"/>
<path d="M3.26682 13.1436H0V16.4294H3.26682V13.1436Z" fill="black"/>
<path d="M6.53439 13.1436H3.26758V16.4294H6.53439V13.1436Z" fill="#1C1C1C"/>
<path d="M9.80002 13.1436H6.5332V16.4294H9.80002V13.1436Z" fill="white"/>
<path d="M13.0676 13.1436H9.80078V16.4294H13.0676V13.1436Z" fill="#1C1C1C"/>
<path d="M16.3332 13.1436H13.0664V16.4294H16.3332V13.1436Z" fill="#4D4D4D"/>
<path d="M19.6008 13.1436H16.334V16.4294H19.6008V13.1436Z" fill="#4D4D4D"/>
<path d="M22.8684 13.1436H19.6016V16.4294H22.8684V13.1436Z" fill="#4D4D4D"/>
<path d="M26.134 13.1436H22.8672V16.4294H26.134V13.1436Z" fill="#4D4D4D"/>
<path d="M29.4016 13.1436H26.1348V16.4294H29.4016V13.1436Z" fill="#4D4D4D"/>
<path d="M32.6653 13.1436H29.3984V16.4294H32.6653V13.1436Z" fill="#4D4D4D"/>
<path d="M35.9328 13.1436H32.666V16.4294H35.9328V13.1436Z" fill="#4D4D4D"/>
<path d="M39.2004 13.1436H35.9336V16.4294H39.2004V13.1436Z" fill="#4D4D4D"/>
<path d="M42.466 13.1436H39.1992V16.4294H42.466V13.1436Z" fill="#4D4D4D"/>
<path d="M45.7336 13.1436H42.4668V16.4294H45.7336V13.1436Z" fill="#4D4D4D"/>
<path d="M48.9992 13.1436H45.7324V16.4294H48.9992V13.1436Z" fill="black"/>
<path d="M3.26682 9.85742H0V13.1433H3.26682V9.85742Z" fill="black"/>
<path d="M6.53439 9.85742H3.26758V13.1433H6.53439V9.85742Z" fill="#1C1C1C"/>
<path d="M9.80002 9.85742H6.5332V13.1433H9.80002V9.85742Z" fill="#1C1C1C"/>
<path d="M13.0676 9.85742H9.80078V13.1433H13.0676V9.85742Z" fill="white"/>
<path d="M16.3332 9.85742H13.0664V13.1433H16.3332V9.85742Z" fill="#4D4D4D"/>
<path d="M19.6008 9.85742H16.334V13.1433H19.6008V9.85742Z" fill="#4D4D4D"/>
<path d="M22.8684 9.85742H19.6016V13.1433H22.8684V9.85742Z" fill="#4D4D4D"/>
<path d="M26.134 9.85742H22.8672V13.1433H26.134V9.85742Z" fill="#4D4D4D"/>
<path d="M29.4016 9.85742H26.1348V13.1433H29.4016V9.85742Z" fill="#4D4D4D"/>
<path d="M32.6653 9.85742H29.3984V13.1433H32.6653V9.85742Z" fill="#4D4D4D"/>
<path d="M35.9328 9.85742H32.666V13.1433H35.9328V9.85742Z" fill="#4D4D4D"/>
<path d="M39.2004 9.85742H35.9336V13.1433H39.2004V9.85742Z" fill="#4D4D4D"/>
<path d="M42.466 9.85742H39.1992V13.1433H42.466V9.85742Z" fill="#4D4D4D"/>
<path d="M45.7336 9.85742H42.4668V13.1433H45.7336V9.85742Z" fill="#4D4D4D"/>
<path d="M48.9992 9.85742H45.7324V13.1433H48.9992V9.85742Z" fill="black"/>
<path d="M3.26682 6.57129H0V9.85716H3.26682V6.57129Z" fill="black"/>
<path d="M6.53439 6.57129H3.26758V9.85716H6.53439V6.57129Z" fill="black"/>
<path d="M9.80002 6.57129H6.5332V9.85716H9.80002V6.57129Z" fill="#1C1C1C"/>
<path d="M13.0676 6.57129H9.80078V9.85716H13.0676V6.57129Z" fill="white"/>
<path d="M16.3332 6.57129H13.0664V9.85716H16.3332V6.57129Z" fill="#4D4D4D"/>
<path d="M19.6008 6.57129H16.334V9.85716H19.6008V6.57129Z" fill="#4D4D4D"/>
<path d="M22.8684 6.57129H19.6016V9.85716H22.8684V6.57129Z" fill="#4D4D4D"/>
<path d="M26.134 6.57129H22.8672V9.85716H26.134V6.57129Z" fill="black"/>
<path d="M29.4016 6.57129H26.1348V9.85716H29.4016V6.57129Z" fill="#4D4D4D"/>
<path d="M32.6653 6.57129H29.3984V9.85716H32.6653V6.57129Z" fill="#4D4D4D"/>
<path d="M35.9328 6.57129H32.666V9.85716H35.9328V6.57129Z" fill="#4D4D4D"/>
<path d="M39.2004 6.57129H35.9336V9.85716H39.2004V6.57129Z" fill="#4D4D4D"/>
<path d="M42.466 6.57129H39.1992V9.85716H42.466V6.57129Z" fill="#4D4D4D"/>
<path d="M45.7336 6.57129H42.4668V9.85716H45.7336V6.57129Z" fill="black"/>
<path d="M48.9992 6.57129H45.7324V9.85716H48.9992V6.57129Z" fill="black"/>
<path d="M6.53439 3.28613H3.26758V6.57201H6.53439V3.28613Z" fill="black"/>
<path d="M9.80002 3.28613H6.5332V6.57201H9.80002V3.28613Z" fill="black"/>
<path d="M13.0676 3.28613H9.80078V6.57201H13.0676V3.28613Z" fill="#1C1C1C"/>
<path d="M16.3332 3.28613H13.0664V6.57201H16.3332V3.28613Z" fill="#4D4D4D"/>
<path d="M19.6008 3.28613H16.334V6.57201H19.6008V3.28613Z" fill="#4D4D4D"/>
<path d="M22.8684 3.28613H19.6016V6.57201H22.8684V3.28613Z" fill="black"/>
<path d="M26.134 3.28613H22.8672V6.57201H26.134V3.28613Z" fill="black"/>
<path d="M29.4016 3.28613H26.1348V6.57201H29.4016V3.28613Z" fill="black"/>
<path d="M32.6653 3.28613H29.3984V6.57201H32.6653V3.28613Z" fill="#4D4D4D"/>
<path d="M35.9328 3.28613H32.666V6.57201H35.9328V3.28613Z" fill="#4D4D4D"/>
<path d="M39.2004 3.28613H35.9336V6.57201H39.2004V3.28613Z" fill="#4D4D4D"/>
<path d="M42.466 3.28613H39.1992V6.57201H42.466V3.28613Z" fill="black"/>
<path d="M45.7336 3.28613H42.4668V6.57201H45.7336V3.28613Z" fill="black"/>
<path d="M9.80002 0H6.5332V3.28588H9.80002V0Z" fill="black"/>
<path d="M13.0676 0H9.80078V3.28588H13.0676V0Z" fill="black"/>
<path d="M16.3332 0H13.0664V3.28588H16.3332V0Z" fill="black"/>
<path d="M19.6008 0H16.334V3.28588H19.6008V0Z" fill="black"/>
<path d="M22.8684 0H19.6016V3.28588H22.8684V0Z" fill="black"/>
<path d="M29.4016 0H26.1348V3.28588H29.4016V0Z" fill="black"/>
<path d="M32.6653 0H29.3984V3.28588H32.6653V0Z" fill="black"/>
<path d="M35.9328 0H32.666V3.28588H35.9328V0Z" fill="black"/>
<path d="M39.2004 0H35.9336V3.28588H39.2004V0Z" fill="black"/>
<path d="M42.466 0H39.1992V3.28588H42.466V0Z" fill="black"/>
</g>
<defs>
<clipPath id="clip0_1045_1614">
<rect width="49" height="46" fill="white"/>
</clipPath>
</defs>
</svg>
