<svg width="40" height="65" viewBox="0 0 40 65" fill="none" xmlns="http://www.w3.org/2000/svg">
<g clip-path="url(#clip0_1338_14075)">
<path d="M15 12.5006V10.001H12.5004V12.5006H15Z" fill="#2E2E2E"/>
<path d="M15 9.99963V7.5H12.5004V9.99963H15Z" fill="#2E2E2E"/>
<path d="M17.501 12.4996V10H15.0013V12.4996H17.501Z" fill="black"/>
<path d="M20.001 12.4996V10H17.5013V12.4996H20.001Z" fill="#2E2E2E"/>
<path d="M22.5 12.5006V10.001H20.0004V12.5006H22.5Z" fill="#2E2E2E"/>
<path d="M25.001 12.4996V10H22.5013V12.4996H25.001Z" fill="black"/>
<path d="M27.501 12.4996V10H25.0013V12.4996H27.501Z" fill="#616161"/>
<path d="M30 12.5006V10.001H27.5004V12.5006H30Z" fill="#2E2E2E"/>
<path d="M32.501 12.4996V10H30.0013V12.4996H32.501Z" fill="#2E2E2E"/>
<path d="M17.5 9.99963V7.5H15.0004V9.99963H17.5Z" fill="#2E2E2E"/>
<path d="M20.001 9.99963V7.5H17.5013V9.99963H20.001Z" fill="black"/>
<path d="M22.5 9.99963V7.5H20.0004V9.99963H22.5Z" fill="black"/>
<path d="M25 9.99963V7.5H22.5004V9.99963H25Z" fill="#616161"/>
<path d="M27.501 9.99963V7.5H25.0013V9.99963H27.501Z" fill="#616161"/>
<path d="M30 9.99963V7.5H27.5004V9.99963H30Z" fill="#616161"/>
<path d="M15 7.49963V5H12.5004V7.49963H15Z" fill="black"/>
<path d="M17.5 7.49963V5H15.0004V7.49963H17.5Z" fill="black"/>
<path d="M19.999 7.49866V4.99902H17.4994V7.49866H19.999Z" fill="black"/>
<path d="M22.5 7.49963V5H20.0004V7.49963H22.5Z" fill="black"/>
<path d="M25 7.49963V5H22.5004V7.49963H25Z" fill="black"/>
<path d="M27.499 7.49866V4.99902H24.9994V7.49866H27.499Z" fill="black"/>
<path d="M30 7.49963V5H27.5004V7.49963H30Z" fill="black"/>
<path d="M12.499 14.9987V12.499H9.99939V14.9987H12.499Z" fill="#2E2E2E"/>
<path d="M12.501 12.4996V10H10.0013V12.4996H12.501Z" fill="#2E2E2E"/>
<path d="M12.501 9.99963V7.5H10.0013V9.99963H12.501Z" fill="#2E2E2E"/>
<path d="M12.499 7.49866V4.99902H9.99939V7.49866H12.499Z" fill="black"/>
<path d="M15 15.0006V12.501H12.5004V15.0006H15Z" fill="black"/>
<path d="M17.5 15.0006V12.501H15.0004V15.0006H17.5Z" fill="#2E2E2E"/>
<path d="M19.999 14.9987V12.499H17.4994V14.9987H19.999Z" fill="#2E2E2E"/>
<path d="M22.5 15.0006V12.501H20.0004V15.0006H22.5Z" fill="#2E2E2E"/>
<path d="M25 15.0006V12.501H22.5004V15.0006H25Z" fill="black"/>
<path d="M27.499 14.9987V12.499H24.9994V14.9987H27.499Z" fill="#2E2E2E"/>
<path d="M30 15.0006V12.501H27.5004V15.0006H30Z" fill="#2E2E2E"/>
<path d="M32.5 15.0006V12.501H30.0004V15.0006H32.5Z" fill="#2E2E2E"/>
<path d="M10 17.4996V15H7.50037V17.4996H10Z" fill="#2E2E2E"/>
<path d="M10 15.0006V12.501H7.50037V15.0006H10Z" fill="#2E2E2E"/>
<path d="M12.501 17.4996V15H10.0013V17.4996H12.501Z" fill="black"/>
<path d="M15 17.4996V15H12.5004V17.4996H15Z" fill="#2E2E2E"/>
<path d="M17.5 17.4996V15H15.0004V17.4996H17.5Z" fill="#2E2E2E"/>
<path d="M19.999 17.3875V14.6279H17.4994V17.3875H19.999Z" fill="#2E2E2E"/>
<path d="M22.5 17.4996V15H20.0004V17.4996H22.5Z" fill="#2E2E2E"/>
<path d="M25 17.4996V15H22.5004V17.4996H25Z" fill="black"/>
<path d="M27.501 17.4996V15H25.0013V17.4996H27.501Z" fill="#2E2E2E"/>
<path d="M30 17.4996V15H27.5004V17.4996H30Z" fill="#2E2E2E"/>
<path d="M10.001 19.9996V17.5H7.50134V19.9996H10.001Z" fill="#2E2E2E"/>
<path d="M12.501 19.9996V17.5H10.0013V19.9996H12.501Z" fill="#2E2E2E"/>
<path d="M15 20.0006V17.501H12.5004V20.0006H15Z" fill="black"/>
<path d="M17.501 19.9996V17.5H15.0013V19.9996H17.501Z" fill="black"/>
<path d="M20.001 19.9996V17.5H17.5013V19.9996H20.001Z" fill="#2E2E2E"/>
<path d="M22.5 20.0006V17.501H20.0004V20.0006H22.5Z" fill="#2E2E2E"/>
<path d="M25.001 19.9996V17.5H22.5013V19.9996H25.001Z" fill="black"/>
<path d="M27.501 19.9996V17.5H25.0013V19.9996H27.501Z" fill="#2E2E2E"/>
<path d="M30 20.0006V17.501H27.5004V20.0006H30Z" fill="#616161"/>
<path d="M10 22.5006V20.001H7.50037V22.5006H10Z" fill="#2E2E2E"/>
<path d="M12.499 22.4987V19.999H9.99939V22.4987H12.499Z" fill="#616161"/>
<path d="M15 22.5006V20.001H12.5004V22.5006H15Z" fill="#616161"/>
<path d="M17.5 22.5006V20.001H15.0004V22.5006H17.5Z" fill="black"/>
<path d="M19.999 22.4987V19.999H17.4994V22.4987H19.999Z" fill="#2E2E2E"/>
<path d="M22.5 22.5006V20.001H20.0004V22.5006H22.5Z" fill="#2E2E2E"/>
<path d="M25 22.5006V20.001H22.5004V22.5006H25Z" fill="black"/>
<path d="M27.499 22.4987V19.999H24.9994V22.4987H27.499Z" fill="#616161"/>
<path d="M30.1328 22.4912V19.7832H27.6332V22.4912H30.1328Z" fill="#2E2E2E"/>
<path d="M10 24.9996V22.5H7.50037V24.9996H10Z" fill="#616161"/>
<path d="M12.501 24.9996V22.5H10.0013V24.9996H12.501Z" fill="#616161"/>
<path d="M15 24.9996V22.5H12.5004V24.9996H15Z" fill="#616161"/>
<path d="M17.5 24.9996V22.5H15.0004V24.9996H17.5Z" fill="black"/>
<path d="M20.001 24.9996V22.5H17.5013V24.9996H20.001Z" fill="#2E2E2E"/>
<path d="M22.5 24.9996V22.5H20.0004V24.9996H22.5Z" fill="#2E2E2E"/>
<path d="M25 24.9996V22.5H22.5004V24.9996H25Z" fill="black"/>
<path d="M27.501 24.9996V22.5H25.0013V24.9996H27.501Z" fill="#2E2E2E"/>
<path d="M30 24.9996V22.5H27.5004V24.9996H30Z" fill="#2E2E2E"/>
<path d="M10.001 27.4996V25H7.50134V27.4996H10.001Z" fill="#616161"/>
<path d="M12.501 27.4996V25H10.0013V27.4996H12.501Z" fill="#616161"/>
<path d="M15 27.5006V25.001H12.5004V27.5006H15Z" fill="#2E2E2E"/>
<path d="M17.501 27.4996V25H15.0013V27.4996H17.501Z" fill="black"/>
<path d="M20.001 27.4996V25H17.5013V27.4996H20.001Z" fill="#2E2E2E"/>
<path d="M22.5 27.5006V25.001H20.0004V27.5006H22.5Z" fill="#2E2E2E"/>
<path d="M25.001 27.4996V25H22.5013V27.4996H25.001Z" fill="black"/>
<path d="M27.501 27.4996V25H25.0013V27.4996H27.501Z" fill="#2E2E2E"/>
<path d="M30 27.5006V25.001H27.5004V27.5006H30Z" fill="#2E2E2E"/>
<path d="M10 30.0006V27.501H7.50037V30.0006H10Z" fill="#616161"/>
<path d="M12.499 29.9987V27.499H9.99939V29.9987H12.499Z" fill="#2E2E2E"/>
<path d="M15 30.0006V27.501H12.5004V30.0006H15Z" fill="black"/>
<path d="M17.5 30.0006V27.501H15.0004V30.0006H17.5Z" fill="black"/>
<path d="M19.999 29.9987V27.499H17.4994V29.9987H19.999Z" fill="#2E2E2E"/>
<path d="M22.5 30.0006V27.501H20.0004V30.0006H22.5Z" fill="#2E2E2E"/>
<path d="M25 30.0006V27.501H22.5004V30.0006H25Z" fill="black"/>
<path d="M27.499 29.9987V27.499H24.9994V29.9987H27.499Z" fill="black"/>
<path d="M30 30.0006V27.501H27.5004V30.0006H30Z" fill="#2E2E2E"/>
<path d="M12.501 32.4996V30H10.0013V32.4996H12.501Z" fill="black"/>
<path d="M15 32.4996V30H12.5004V32.4996H15Z" fill="#2E2E2E"/>
<path d="M17.5 32.4996V30H15.0004V32.4996H17.5Z" fill="#2E2E2E"/>
<path d="M20.001 32.4996V30H17.5013V32.4996H20.001Z" fill="#2E2E2E"/>
<path d="M22.5 32.4996V30H20.0004V32.4996H22.5Z" fill="#2E2E2E"/>
<path d="M25 32.4996V30H22.5004V32.4996H25Z" fill="#2E2E2E"/>
<path d="M27.501 32.4996V30H25.0013V32.4996H27.501Z" fill="#2E2E2E"/>
<path d="M30 32.4996V30H27.5004V32.4996H30Z" fill="black"/>
<path d="M15 35.0006V32.501H12.5004V35.0006H15Z" fill="black"/>
<path d="M17.501 34.9996V32.5H15.0013V34.9996H17.501Z" fill="black"/>
<path d="M20.001 34.9996V32.5H17.5013V34.9996H20.001Z" fill="black"/>
<path d="M22.5 35.0006V32.501H20.0004V35.0006H22.5Z" fill="black"/>
<path d="M25.001 34.9996V32.5H22.5013V34.9996H25.001Z" fill="black"/>
<path d="M27.501 34.9996V32.5H25.0013V34.9996H27.501Z" fill="black"/>
<path d="M30 35.0006V32.501H27.5004V35.0006H30Z" fill="#2E2E2E"/>
<path d="M15 37.5006V35.001H12.5004V37.5006H15Z" fill="black"/>
<path d="M17.5 37.5006V35.001H15.0004V37.5006H17.5Z" fill="black"/>
<path d="M19.999 37.4996V35H17.4994V37.4996H19.999Z" fill="black"/>
<path d="M22.5 37.5006V35.001H20.0004V37.5006H22.5Z" fill="black"/>
<path d="M25 37.5006V35.001H22.5004V37.5006H25Z" fill="black"/>
<path d="M27.499 37.4996V35H24.9994V37.4996H27.499Z" fill="black"/>
<path d="M30 37.5006V35.001H27.5004V37.5006H30Z" fill="black"/>
<path d="M12.501 34.9996V32.5H10.0013V34.9996H12.501Z" fill="#2E2E2E"/>
<path d="M12.499 37.4996V35H9.99939V37.4996H12.499Z" fill="black"/>
<path d="M10.001 12.4996V10H7.50134V12.4996H10.001Z" fill="#2E2E2E"/>
<path d="M10 9.99963V7.5H7.50037V9.99963H10Z" fill="black"/>
<path d="M10 32.4996V30H7.50037V32.4996H10Z" fill="#2E2E2E"/>
<path d="M10.001 34.9996V32.5H7.50134V34.9996H10.001Z" fill="black"/>
<path d="M7.5 17.4996V15H5.00037V17.4996H7.5Z" fill="black"/>
<path d="M7.5 15.0006V12.501H5.00037V15.0006H7.5Z" fill="black"/>
<path d="M7.5 20.0006V17.501H5.00037V20.0006H7.5Z" fill="black"/>
<path d="M7.5 22.5006V20.001H5.00037V22.5006H7.5Z" fill="black"/>
<path d="M7.5 24.9996V22.5H5.00037V24.9996H7.5Z" fill="black"/>
<path d="M7.5 27.5006V25.001H5.00037V27.5006H7.5Z" fill="black"/>
<path d="M7.5 30.0006V27.501H5.00037V30.0006H7.5Z" fill="black"/>
<path d="M7.5 12.5006V10.001H5.00037V12.5006H7.5Z" fill="black"/>
<path d="M7.5 32.4996V30H5.00037V32.4996H7.5Z" fill="black"/>
<path d="M5 17.4996V15H2.50037V17.4996H5Z" fill="#2E2E2E"/>
<path d="M4.99902 14.9987V12.499H2.49939V14.9987H4.99902Z" fill="#2E2E2E"/>
<path d="M5 19.9996V17.5H2.50037V19.9996H5Z" fill="#2E2E2E"/>
<path d="M4.99902 22.4987V19.999H2.49939V22.4987H4.99902Z" fill="#2E2E2E"/>
<path d="M5 24.9996V22.5H2.50037V24.9996H5Z" fill="#2E2E2E"/>
<path d="M5 27.4996V25H2.50037V27.4996H5Z" fill="#2E2E2E"/>
<path d="M4.99902 29.9987V27.499H2.49939V29.9987H4.99902Z" fill="#616161"/>
<path d="M5 12.4996V10H2.50037V12.4996H5Z" fill="#2E2E2E"/>
<path d="M5 32.4996V30H2.50037V32.4996H5Z" fill="#616161"/>
<path d="M32.5 17.4996V15H30.0004V17.4996H32.5Z" fill="#616161"/>
<path d="M32.501 19.9996V17.5H30.0013V19.9996H32.501Z" fill="#2E2E2E"/>
<path d="M32.5 22.5006V20.001H30.0004V22.5006H32.5Z" fill="#2E2E2E"/>
<path d="M32.5 24.9996V22.5H30.0004V24.9996H32.5Z" fill="#2E2E2E"/>
<path d="M32.501 27.4996V25H30.0013V27.4996H32.501Z" fill="#2E2E2E"/>
<path d="M32.5 30.0006V27.501H30.0004V30.0006H32.5Z" fill="#2E2E2E"/>
<path d="M35 14.9987V12.499H32.5004V14.9987H35Z" fill="black"/>
<path d="M32.5 9.99963V7.5H30.0004V9.99963H32.5Z" fill="black"/>
<path d="M35.001 12.4996V10H32.5013V12.4996H35.001Z" fill="black"/>
<path d="M15 5.00061V2.50098H12.5004V5.00061H15Z" fill="#2E2E2E"/>
<path d="M17.501 4.99963V2.5H15.0013V4.99963H17.501Z" fill="#2E2E2E"/>
<path d="M20.001 4.99963V2.5H17.5013V4.99963H20.001Z" fill="#2E2E2E"/>
<path d="M22.5 5.00061V2.50098H20.0004V5.00061H22.5Z" fill="#2E2E2E"/>
<path d="M25.001 4.99963V2.5H22.5013V4.99963H25.001Z" fill="#2E2E2E"/>
<path d="M27.501 4.99963V2.5H25.0013V4.99963H27.501Z" fill="#2E2E2E"/>
<path d="M30 5.00061V2.50098H27.5004V5.00061H30Z" fill="#616161"/>
<path d="M12.501 4.99963V2.5H10.0013V4.99963H12.501Z" fill="#2E2E2E"/>
<path d="M10 7.49963V5H7.50037V7.49963H10Z" fill="#2E2E2E"/>
<path d="M7.5 9.99963V7.5H5.00037V9.99963H7.5Z" fill="#2E2E2E"/>
<path d="M32.5 7.49963V5H30.0004V7.49963H32.5Z" fill="#616161"/>
<path d="M35.001 9.99963V7.5H32.5013V9.99963H35.001Z" fill="#2E2E2E"/>
<path d="M35.001 17.4996V15H32.5013V17.4996H35.001Z" fill="black"/>
<path d="M35.001 19.9996V17.5H32.5013V19.9996H35.001Z" fill="black"/>
<path d="M35 22.4987V19.999H32.5004V22.4987H35Z" fill="black"/>
<path d="M35.001 24.9996V22.5H32.5013V24.9996H35.001Z" fill="black"/>
<path d="M35.001 27.4996V25H32.5013V27.4996H35.001Z" fill="black"/>
<path d="M35 29.9987V27.499H32.5004V29.9987H35Z" fill="black"/>
<path d="M32.5 32.4996V30H30.0004V32.4996H32.5Z" fill="#2E2E2E"/>
<path d="M35.001 32.4996V30H32.5013V32.4996H35.001Z" fill="black"/>
<path d="M37.5 15.0006V12.501H35.0004V15.0006H37.5Z" fill="#2E2E2E"/>
<path d="M37.5 12.5006V10.001H35.0004V12.5006H37.5Z" fill="#616161"/>
<path d="M37.5 17.4996V15H35.0004V17.4996H37.5Z" fill="#2E2E2E"/>
<path d="M37.5 20.0006V17.501H35.0004V20.0006H37.5Z" fill="#2E2E2E"/>
<path d="M37.5 22.5006V20.001H35.0004V22.5006H37.5Z" fill="#2E2E2E"/>
<path d="M37.5 24.9996V22.5H35.0004V24.9996H37.5Z" fill="#2E2E2E"/>
<path d="M37.5 27.5006V25.001H35.0004V27.5006H37.5Z" fill="#2E2E2E"/>
<path d="M37.5 30.0006V27.501H35.0004V30.0006H37.5Z" fill="#2E2E2E"/>
<path d="M37.5 32.4996V30H35.0004V32.4996H37.5Z" fill="#2E2E2E"/>
<path d="M32.501 34.9996V32.5H30.0013V34.9996H32.501Z" fill="black"/>
<path d="M15 39.9996V37.5H12.5004V39.9996H15Z" fill="#2E2E2E"/>
<path d="M17.5 39.9996V37.5H15.0004V39.9996H17.5Z" fill="#2E2E2E"/>
<path d="M20.001 39.9996V37.5H17.5013V39.9996H20.001Z" fill="#2E2E2E"/>
<path d="M22.5 39.9996V37.5H20.0004V39.9996H22.5Z" fill="#2E2E2E"/>
<path d="M25 39.9996V37.5H22.5004V39.9996H25Z" fill="#2E2E2E"/>
<path d="M27.501 39.9996V37.5H25.0013V39.9996H27.501Z" fill="#2E2E2E"/>
<path d="M30 39.9996V37.5H27.5004V39.9996H30Z" fill="#2E2E2E"/>
<path d="M12.501 39.9996V37.5H10.0013V39.9996H12.501Z" fill="#2E2E2E"/>
<path d="M10 37.5006V35.001H7.50037V37.5006H10Z" fill="#2E2E2E"/>
<path d="M7.5 35.0006V32.501H5.00037V35.0006H7.5Z" fill="#2E2E2E"/>
<path d="M2.5 17.4996V15H0.000365019V17.4996H2.5Z" fill="black"/>
<path d="M2.5 15.0006V12.501H0.000365973V15.0006H2.5Z" fill="black"/>
<path d="M2.50098 19.9996V17.5H0.00134158V19.9996H2.50098Z" fill="black"/>
<path d="M2.5 22.5006V20.001H0.000366926V22.5006H2.5Z" fill="black"/>
<path d="M2.5 24.9996V22.5H0.000365019V24.9996H2.5Z" fill="black"/>
<path d="M2.50098 27.4996V25H0.00134158V27.4996H2.50098Z" fill="black"/>
<path d="M2.5 30.0006V27.501H0.000366926V30.0006H2.5Z" fill="black"/>
<path d="M2.50098 12.4996V10H0.00134254V12.4996H2.50098Z" fill="black"/>
<path d="M2.5 32.4996V30H0.000365019V32.4996H2.5Z" fill="black"/>
<path d="M10.001 4.99963V2.5H7.50134V4.99963H10.001Z" fill="#616161"/>
<path d="M7.5 7.49963V5H5.00037V7.49963H7.5Z" fill="#616161"/>
<path d="M5 9.99963V7.5H2.50037V9.99963H5Z" fill="#616161"/>
<path d="M10 39.9996V37.5H7.50037V39.9996H10Z" fill="#616161"/>
<path d="M7.5 37.5006V35.001H5.00037V37.5006H7.5Z" fill="#2E2E2E"/>
<path d="M5 34.9996V32.5H2.50037V34.9996H5Z" fill="#616161"/>
<path d="M35.001 34.9996V32.5H32.5013V34.9996H35.001Z" fill="#2E2E2E"/>
<path d="M32.5 37.5006V35.001H30.0004V37.5006H32.5Z" fill="#2E2E2E"/>
<path d="M32.501 4.99963V2.5H30.0013V4.99963H32.501Z" fill="#616161"/>
<path d="M35 7.49866V4.99902H32.5004V7.49866H35Z" fill="#2E2E2E"/>
<path d="M37.5 9.99963V7.5H35.0004V9.99963H37.5Z" fill="#2E2E2E"/>
<path d="M40 15.0006V12.501H37.5004V15.0006H40Z" fill="black"/>
<path d="M40.001 12.4996V10H37.5013V12.4996H40.001Z" fill="black"/>
<path d="M15 2.49963V0L12.5004 0V2.49963H15Z" fill="black"/>
<path d="M17.5 2.49963V0L15.0004 0V2.49963H17.5Z" fill="black"/>
<path d="M20.001 2.49963V0L17.5013 0V2.49963H20.001Z" fill="black"/>
<path d="M22.5 2.49963V0L20.0004 0V2.49963H22.5Z" fill="black"/>
<path d="M25 2.49963V0L22.5004 0V2.49963H25Z" fill="black"/>
<path d="M27.501 2.49963V0L25.0013 0V2.49963H27.501Z" fill="black"/>
<path d="M30 2.49963V0L27.5004 0V2.49963H30Z" fill="black"/>
<path d="M12.501 2.49963V0L10.0013 0V2.49963H12.501Z" fill="black"/>
<path d="M2.5 9.99963V7.5H0.000365019V9.99963H2.5Z" fill="black"/>
<path d="M10 2.49963V0L7.50037 0V2.49963H10Z" fill="black"/>
<path d="M7.5 5.00061V2.50098H5.00037V5.00061H7.5Z" fill="black"/>
<path d="M4.99902 7.49866V4.99902H2.49939V7.49866H4.99902Z" fill="black"/>
<path d="M32.5 2.49963V0L30.0004 0V2.49963H32.5Z" fill="black"/>
<path d="M35.001 4.99963V2.5H32.5013V4.99963H35.001Z" fill="black"/>
<path d="M37.5 7.49963V5H35.0004V7.49963H37.5Z" fill="black"/>
<path d="M40 9.99963V7.5H37.5004V9.99963H40Z" fill="black"/>
<path d="M40 17.4996V15H37.5004V17.4996H40Z" fill="black"/>
<path d="M40.001 19.9996V17.5H37.5013V19.9996H40.001Z" fill="black"/>
<path d="M40 22.5006V20.001H37.5004V22.5006H40Z" fill="black"/>
<path d="M40 24.9996V22.5H37.5004V24.9996H40Z" fill="black"/>
<path d="M40.001 27.4996V25H37.5013V27.4996H40.001Z" fill="black"/>
<path d="M40 30.0006V27.501H37.5004V30.0006H40Z" fill="black"/>
<path d="M40 32.4996V30H37.5004V32.4996H40Z" fill="black"/>
<path d="M32.5 39.9996V37.5H30.0004V39.9996H32.5Z" fill="#616161"/>
<path d="M37.5 35.0006V32.501H35.0004V35.0006H37.5Z" fill="#616161"/>
<path d="M35 37.4996V35H32.5004V37.4996H35Z" fill="#616161"/>
<path d="M15 42.5006V40.001H12.5004V42.5006H15Z" fill="black"/>
<path d="M17.501 42.4996V40H15.0013V42.4996H17.501Z" fill="black"/>
<path d="M20.001 42.4996V40H17.5013V42.4996H20.001Z" fill="black"/>
<path d="M22.5 42.5006V40.001H20.0004V42.5006H22.5Z" fill="black"/>
<path d="M25.001 42.4996V40H22.5013V42.4996H25.001Z" fill="black"/>
<path d="M27.501 42.4996V40H25.0013V42.4996H27.501Z" fill="black"/>
<path d="M30 42.5006V40.001H27.5004V42.5006H30Z" fill="black"/>
<path d="M12.501 42.4996V40H10.0013V42.4996H12.501Z" fill="black"/>
<path d="M2.50098 34.9996V32.5H0.00134158V34.9996H2.50098Z" fill="black"/>
<path d="M10.001 42.4996V40H7.50134V42.4996H10.001Z" fill="black"/>
<path d="M7.5 39.9996V37.5H5.00037V39.9996H7.5Z" fill="black"/>
<path d="M4.99902 37.4996V35H2.49939V37.4996H4.99902Z" fill="black"/>
<path d="M40 34.9996V32.5H37.5004V34.9996H40Z" fill="black"/>
<path d="M32.5 42.4996V40H30.0004V42.4996H32.5Z" fill="black"/>
<path d="M37.499 37.5006V35.001H34.9994V37.5006H37.499Z" fill="black"/>
<path d="M35 39.9996V37.5H32.5004V39.9996H35Z" fill="black"/>
<path d="M15.0006 15H12.501V17.4996H15.0006V15Z" fill="#C9C9C9"/>
<path d="M17.4996 12.501H15V15.0006H17.4996V12.501Z" fill="#C9C9C9"/>
<path d="M17.4996 15H15V17.4996H17.4996V15Z" fill="#C9C9C9"/>
<path d="M19.9996 10H17.5V12.4996H19.9996V10Z" fill="#C9C9C9"/>
<path d="M19.9996 12.501H17.5V15.0006H19.9996V12.501Z" fill="#C9C9C9"/>
<path d="M22.5006 10H20.001V12.4996H22.5006V10Z" fill="#C9C9C9"/>
<path d="M22.5006 12.501H20.001V15.0006H22.5006V12.501Z" fill="#C9C9C9"/>
<path d="M22.5006 15H20.001V17.4996H22.5006V15Z" fill="#C9C9C9"/>
<path d="M19.9996 17.5H17.5V19.9996H19.9996V17.5Z" fill="#C9C9C9"/>
<path d="M19.9996 20.001H17.5V22.5006H19.9996V20.001Z" fill="#C9C9C9"/>
<path d="M22.5006 20.001H20.001V22.5006H22.5006V20.001Z" fill="#C9C9C9"/>
<path d="M22.5006 17.5H20.001V19.9996H22.5006V17.5Z" fill="#C9C9C9"/>
<path d="M19.9996 22.5H17.5V24.9996H19.9996V22.5Z" fill="#C9C9C9"/>
<path d="M22.5006 22.5H20.001V24.9996H22.5006V22.5Z" fill="#C9C9C9"/>
<path d="M19.9996 25H17.5V27.4996H19.9996V25Z" fill="#C9C9C9"/>
<path d="M22.5006 25H20.001V27.4996H22.5006V25Z" fill="#C9C9C9"/>
<path d="M19.9996 27.501H17.5V30.0006H19.9996V27.501Z" fill="#C9C9C9"/>
<path d="M19.9996 30H17.5V32.4996H19.9996V30Z" fill="#C9C9C9"/>
<path d="M17.4996 30H15V32.4996H17.4996V30Z" fill="#C9C9C9"/>
<path d="M15.0006 30H12.501V32.4996H15.0006V30Z" fill="#C9C9C9"/>
<path d="M22.5006 30H20.001V32.4996H22.5006V30Z" fill="#C9C9C9"/>
<path d="M24.9996 30H22.5V32.4996H24.9996V30Z" fill="#C9C9C9"/>
<path d="M27.4996 30H25V32.4996H27.4996V30Z" fill="#C9C9C9"/>
<path d="M15.1328 9.99963V7.5H12.6332V9.99963H15.1328Z" fill="#171717"/>
<path d="M17.4971 12.3873V9.8877H14.9974V12.3873H17.4971Z" fill="#171717"/>
<path d="M19.9971 12.3854V9.88574H17.4974V12.3854H19.9971Z" fill="#171717"/>
<path d="M22.498 12.3873V9.8877H19.9984V12.3873H22.498Z" fill="#171717"/>
<path d="M24.999 9.88635V7.38672H22.4994V9.88635H24.999Z" fill="#171717"/>
<path d="M12.6328 12.2916V9.79199H10.1332V12.2916H12.6328Z" fill="#171717"/>
<path d="M23.4004 16.2503V12.3867H12.4968V16.2503H23.4004Z" fill="#171717"/>
<path d="M24.9971 14.8864V12.3867H22.4974V14.8864H24.9971Z" fill="#171717"/>
<path d="M23.7471 18.3242V14.8867H12.497V18.3242H23.7471Z" fill="#171717"/>
<path d="M24.999 17.3864V14.8867H22.4994V17.3864H24.999Z" fill="#171717"/>
<path d="M27.498 17.3864V14.8867H24.9984V17.3864H27.498Z" fill="#171717"/>
<path d="M12.4971 19.8854V17.3857H9.99744V19.8854H12.4971Z" fill="#171717"/>
<path d="M17.4971 19.8873V17.3877H14.9974V19.8873H17.4971Z" fill="#171717"/>
<path d="M22.498 29.8863V17.3857H17.4976V29.8863H22.498Z" fill="#171717"/>
<path d="M24.9971 19.8873V17.3877H22.4974V19.8873H24.9971Z" fill="#171717"/>
<path d="M27.4971 19.8854V17.3857H24.9974V19.8854H27.4971Z" fill="#171717"/>
<path d="M22.498 22.3864V19.8867H19.9984V22.3864H22.498Z" fill="#171717"/>
<path d="M24.9971 22.3864V19.8867H22.4974V22.3864H24.9971Z" fill="#171717"/>
<path d="M17.499 24.8864V22.3867H14.9994V24.8864H17.499Z" fill="#171717"/>
<path d="M19.998 24.8864V22.3867H17.4984V24.8864H19.998Z" fill="#171717"/>
<path d="M14.998 27.3873V24.8877H12.4984V27.3873H14.998Z" fill="#171717"/>
<path d="M17.4971 27.3873V24.8877H14.9974V27.3873H17.4971Z" fill="#171717"/>
<path d="M14.998 29.8864V27.3867H12.4984V29.8864H14.998Z" fill="#171717"/>
<path d="M17.4971 29.8864V27.3867H14.9974V29.8864H17.4971Z" fill="#171717"/>
<path d="M29.998 29.8864V27.3867H27.4984V29.8864H29.998Z" fill="#171717"/>
<path d="M27.501 32.5009V29.8877H12.4985V32.5009H27.501Z" fill="#171717"/>
<path d="M17.499 32.3864V29.8867H14.9994V32.3864H17.499Z" fill="#171717"/>
<path d="M19.998 32.3864V29.8867H17.4984V32.3864H19.998Z" fill="#171717"/>
<path d="M22.498 32.3873V29.8877H19.9984V32.3873H22.498Z" fill="#171717"/>
<path d="M24.9971 32.3864V29.8867H22.4974V32.3864H24.9971Z" fill="#171717"/>
<path d="M27.498 32.3864V29.8867H24.9984V32.3864H27.498Z" fill="#171717"/>
<path d="M29.9971 34.8873V32.3877H27.4974V34.8873H29.9971Z" fill="#171717"/>
<path d="M12.5 44.8873V42.3877H10.0004V44.8873H12.5Z" fill="#262626"/>
<path d="M12.501 47.3873V44.8877H10.0013V47.3873H12.501Z" fill="#4D4D4D"/>
<path d="M12.5 49.8864V47.3867H10.0004V49.8864H12.5Z" fill="#4D4D4D"/>
<path d="M12.5 52.3873V49.8877H10.0004V52.3873H12.5Z" fill="#4D4D4D"/>
<path d="M12.501 54.8873V52.3877H10.0013V54.8873H12.501Z" fill="#4D4D4D"/>
<path d="M12.501 57.3864V54.8867H10.0013V57.3864H12.501Z" fill="#4D4D4D"/>
<path d="M12.5 59.8873V57.3877H10.0004V59.8873H12.5Z" fill="#4D4D4D"/>
<path d="M12.501 62.3873V59.8877H10.0013V62.3873H12.501Z" fill="#4D4D4D"/>
<path d="M12.501 64.8864V62.3867H10.0013V64.8864H12.501Z" fill="#4D4D4D"/>
<path d="M15 44.8873V42.3877H12.5004V44.8873H15Z" fill="#262626"/>
<path d="M15 47.3883V44.8887H12.5004V47.3883H15Z" fill="#262626"/>
<path d="M14.999 49.8873V47.3877H12.4994V49.8873H14.999Z" fill="#262626"/>
<path d="M15 52.3873V49.8877H12.5004V52.3873H15Z" fill="#262626"/>
<path d="M15 54.8883V52.3887H12.5004V54.8883H15Z" fill="#262626"/>
<path d="M14.999 57.3883V54.8887H12.4994V57.3883H14.999Z" fill="#262626"/>
<path d="M15 59.8873V57.3877H12.5004V59.8873H15Z" fill="#262626"/>
<path d="M15 62.3883V59.8887H12.5004V62.3883H15Z" fill="#262626"/>
<path d="M17.5 44.8873V42.3877H15.0004V44.8873H17.5Z" fill="#262626"/>
<path d="M17.5 47.3873V44.8877H15.0004V47.3873H17.5Z" fill="#4D4D4D"/>
<path d="M17.5 49.8873V47.3877H15.0004V49.8873H17.5Z" fill="#4D4D4D"/>
<path d="M17.5 52.3873V49.8877H15.0004V52.3873H17.5Z" fill="#4D4D4D"/>
<path d="M17.5 54.8873V52.3877H15.0004V54.8873H17.5Z" fill="#4D4D4D"/>
<path d="M17.5 57.3883V54.8887H15.0004V57.3883H17.5Z" fill="#4D4D4D"/>
<path d="M17.5 59.8873V57.3877H15.0004V59.8873H17.5Z" fill="#4D4D4D"/>
<path d="M20 44.8873V42.3877H17.5004V44.8873H20Z" fill="#262626"/>
<path d="M20.001 47.3873V44.8877H17.5013V47.3873H20.001Z" fill="#4D4D4D"/>
<path d="M20 49.8864V47.3867H17.5004V49.8864H20Z" fill="#4D4D4D"/>
<path d="M20 52.3873V49.8877H17.5004V52.3873H20Z" fill="#4D4D4D"/>
<path d="M20.001 54.8873V52.3877H17.5013V54.8873H20.001Z" fill="#4D4D4D"/>
<path d="M20.001 57.3864V54.8867H17.5013V57.3864H20.001Z" fill="#4D4D4D"/>
<path d="M22.501 44.8873V42.3877H20.0013V44.8873H22.501Z" fill="#262626"/>
<path d="M22.501 47.3883V44.8887H20.0013V47.3883H22.501Z" fill="#4D4D4D"/>
<path d="M22.499 49.8873V47.3877H19.9994V49.8873H22.499Z" fill="#4D4D4D"/>
<path d="M22.501 52.3873V49.8877H20.0013V52.3873H22.501Z" fill="#4D4D4D"/>
<path d="M22.501 54.8883V52.3887H20.0013V54.8883H22.501Z" fill="#4D4D4D"/>
<path d="M22.499 57.3883V54.8887H19.9994V57.3883H22.499Z" fill="#4D4D4D"/>
<path d="M25 44.8873V42.3877H22.5004V44.8873H25Z" fill="#262626"/>
<path d="M25 47.3873V44.8877H22.5004V47.3873H25Z" fill="#4D4D4D"/>
<path d="M25 49.8873V47.3877H22.5004V49.8873H25Z" fill="#4D4D4D"/>
<path d="M25 52.3873V49.8877H22.5004V52.3873H25Z" fill="#4D4D4D"/>
<path d="M25 54.8873V52.3877H22.5004V54.8873H25Z" fill="#4D4D4D"/>
<path d="M25 57.3883V54.8887H22.5004V57.3883H25Z" fill="#4D4D4D"/>
<path d="M25 59.8873V57.3877H22.5004V59.8873H25Z" fill="#4D4D4D"/>
<path d="M27.5 44.8873V42.3877H25.0004V44.8873H27.5Z" fill="#262626"/>
<path d="M27.501 47.3873V44.8877H25.0013V47.3873H27.501Z" fill="#262626"/>
<path d="M27.5 49.8864V47.3867H25.0004V49.8864H27.5Z" fill="#262626"/>
<path d="M27.5 52.3873V49.8877H25.0004V52.3873H27.5Z" fill="#262626"/>
<path d="M27.501 54.8873V52.3877H25.0013V54.8873H27.501Z" fill="#262626"/>
<path d="M27.501 57.3864V54.8867H25.0013V57.3864H27.501Z" fill="#262626"/>
<path d="M27.5 59.8873V57.3877H25.0004V59.8873H27.5Z" fill="#262626"/>
<path d="M27.501 62.3873V59.8877H25.0013V62.3873H27.501Z" fill="#262626"/>
<path d="M30.001 44.8873V42.3877H27.5013V44.8873H30.001Z" fill="#262626"/>
<path d="M30.001 47.3883V44.8887H27.5013V47.3883H30.001Z" fill="#4D4D4D"/>
<path d="M29.999 49.8873V47.3877H27.4994V49.8873H29.999Z" fill="#4D4D4D"/>
<path d="M30.001 52.3873V49.8877H27.5013V52.3873H30.001Z" fill="#4D4D4D"/>
<path d="M30.001 54.8883V52.3887H27.5013V54.8883H30.001Z" fill="#4D4D4D"/>
<path d="M29.999 57.3883V54.8887H27.4994V57.3883H29.999Z" fill="#4D4D4D"/>
<path d="M30.001 59.8873V57.3877H27.5013V59.8873H30.001Z" fill="#4D4D4D"/>
<path d="M30.001 62.3883V59.8887H27.5013V62.3883H30.001Z" fill="#4D4D4D"/>
<path d="M30.001 64.8883V62.3887H27.5013V64.8883H30.001Z" fill="#4D4D4D"/>
<path d="M16.7598 34.7828V32.2832H14.2601V34.7828H16.7598Z" fill="#212121"/>
<path d="M15.1318 12.2916V9.79199H12.6322V12.2916H15.1318Z" fill="black"/>
<path d="M25.1328 12.2916V9.79199H22.6332V12.2916H25.1328Z" fill="black"/>
<path d="M17.6318 9.79163V7.29199H15.1322V9.79163H17.6318Z" fill="black"/>
<path d="M20.1328 9.79163V7.29199H17.6332V9.79163H20.1328Z" fill="black"/>
<path d="M22.6318 9.79163V7.29199H20.1322V9.79163H22.6318Z" fill="black"/>
<path d="M12.6328 14.7916V12.292H10.1332V14.7916H12.6328Z" fill="black"/>
<path d="M17.6328 14.7907V12.291H15.1332V14.7907H17.6328Z" fill="black"/>
<path d="M20.1328 14.7916V12.292H17.6332V14.7916H20.1328Z" fill="black"/>
<path d="M22.6338 14.7916V12.292H20.1342V14.7916H22.6338Z" fill="black"/>
<path d="M27.6328 14.7916V12.292H25.1332V14.7916H27.6328Z" fill="black"/>
<path d="M12.6328 17.2916V14.792H10.1332V17.2916H12.6328Z" fill="black"/>
<path d="M15.1318 17.2916V14.792H12.6322V17.2916H15.1318Z" fill="black"/>
<path d="M17.6318 17.2916V14.792H15.1322V17.2916H17.6318Z" fill="black"/>
<path d="M20.1328 17.2916V14.792H17.6332V17.2916H20.1328Z" fill="black"/>
<path d="M22.6318 17.2916V14.792H20.1322V17.2916H22.6318Z" fill="black"/>
<path d="M30.1318 17.2916V14.792H27.6322V17.2916H30.1318Z" fill="black"/>
<path d="M17.6328 19.7916V17.292H15.1332V19.7916H17.6328Z" fill="black"/>
<path d="M20.1328 19.7926V17.293H17.6332V19.7926H20.1328Z" fill="black"/>
<path d="M22.6318 19.7916V17.292H20.1322V19.7916H22.6318Z" fill="black"/>
<path d="M30.1318 19.7916V17.292H27.6322V19.7916H30.1318Z" fill="black"/>
<path d="M17.6328 22.2907V19.791H15.1332V22.2907H17.6328Z" fill="black"/>
<path d="M27.6328 22.2926V19.793H25.1332V22.2926H27.6328Z" fill="black"/>
<path d="M17.6318 24.7916V22.292H15.1322V24.7916H17.6318Z" fill="black"/>
<path d="M20.1328 24.7916V22.292H17.6332V24.7916H20.1328Z" fill="black"/>
<path d="M22.6318 24.7916V22.292H20.1322V24.7916H22.6318Z" fill="black"/>
<path d="M30.1318 24.7916V22.292H27.6322V24.7916H30.1318Z" fill="black"/>
<path d="M12.6328 27.2916V24.792H10.1332V27.2916H12.6328Z" fill="black"/>
<path d="M15.1318 27.2916V24.792H12.6322V27.2916H15.1318Z" fill="black"/>
<path d="M17.6328 27.2916V24.792H15.1332V27.2916H17.6328Z" fill="black"/>
<path d="M20.1328 27.2926V24.793H17.6332V27.2926H20.1328Z" fill="black"/>
<path d="M22.6318 27.2916V24.792H20.1322V27.2916H22.6318Z" fill="black"/>
<path d="M30.1318 27.2916V24.792H27.6322V27.2916H30.1318Z" fill="black"/>
<path d="M12.6328 29.7926V27.293H10.1332V29.7926H12.6328Z" fill="black"/>
<path d="M17.6328 29.7907V27.291H15.1332V29.7907H17.6328Z" fill="black"/>
<path d="M20.1328 29.7926V27.293H17.6332V29.7926H20.1328Z" fill="black"/>
<path d="M22.6338 29.7926V27.293H20.1342V29.7926H22.6338Z" fill="black"/>
<path d="M27.6328 29.7926V27.293H25.1332V29.7926H27.6328Z" fill="black"/>
<path d="M30.1338 29.7926V27.293H27.6342V29.7926H30.1338Z" fill="black"/>
<path d="M12.6328 32.2916V29.792H10.1332V32.2916H12.6328Z" fill="black"/>
<path d="M15.1318 32.2916V29.792H12.6322V32.2916H15.1318Z" fill="black"/>
<path d="M25.1318 32.2916V29.792H22.6322V32.2916H25.1318Z" fill="black"/>
<path d="M17.6328 34.7916V32.292H15.1332V34.7916H17.6328Z" fill="black"/>
<path d="M20.1328 34.7916V32.292H17.6332V34.7916H20.1328Z" fill="black"/>
<path d="M22.6318 34.7916V32.292H20.1322V34.7916H22.6318Z" fill="black"/>
<path d="M26.7598 34.7819V32.2822H24.2601V34.7819H26.7598Z" fill="#212121"/>
<path d="M20.1198 9.78223H17.6201V12.2819H20.1198V9.78223Z" fill="white"/>
<path d="M22.6207 9.78223H20.1211V12.2819H22.6207V9.78223Z" fill="white"/>
<path d="M25.1207 12.2822H22.6211V14.7819H25.1207V12.2822Z" fill="white"/>
<path d="M27.6198 14.7822H25.1201V17.2819H27.6198V14.7822Z" fill="#CFCFCF"/>
<path d="M27.6198 17.2822H25.1201V19.7819H27.6198V17.2822Z" fill="#CFCFCF"/>
<path d="M25.1207 17.2822H22.6211V19.7819H25.1207V17.2822Z" fill="white"/>
<path d="M25.1207 14.7822H22.6211V17.2819H25.1207V14.7822Z" fill="white"/>
<path d="M25.1207 19.7822H22.6211V22.2819H25.1207V19.7822Z" fill="#CFCFCF"/>
<path d="M22.6207 19.7822H20.1211V22.2819H22.6207V19.7822Z" fill="white"/>
<path d="M20.1198 19.7822H17.6201V22.2819H20.1198V19.7822Z" fill="white"/>
<path d="M17.6207 9.78223H15.1211V12.2819H17.6207V9.78223Z" fill="white"/>
<path d="M15.1207 12.2822H12.6211V14.7819H15.1207V12.2822Z" fill="white"/>
<path d="M20.1198 29.7832H17.6201V32.2828H20.1198V29.7832Z" fill="white"/>
<path d="M22.6207 29.7832H20.1211V32.2828H22.6207V29.7832Z" fill="white"/>
<path d="M25.1207 27.2822H22.6211V29.7819H25.1207V27.2822Z" fill="white"/>
<path d="M25.1207 24.7822H22.6211V27.2819H25.1207V24.7822Z" fill="#CFCFCF"/>
<path d="M27.6198 24.7822H25.1201V27.2819H27.6198V24.7822Z" fill="#CFCFCF"/>
<path d="M27.6198 22.2832H25.1201V24.7828H27.6198V22.2832Z" fill="#CFCFCF"/>
<path d="M25.1207 22.2832H22.6211V24.7828H25.1207V22.2832Z" fill="white"/>
<path d="M17.6207 29.7832H15.1211V32.2828H17.6207V29.7832Z" fill="white"/>
<path d="M15.1207 27.2822H12.6211V29.7819H15.1207V27.2822Z" fill="white"/>
</g>
<defs>
<clipPath id="clip0_1338_14075">
<rect width="40" height="64.8875" fill="white"/>
</clipPath>
</defs>
</svg>
