<svg width="46" height="46" viewBox="0 0 46 46" fill="none" xmlns="http://www.w3.org/2000/svg">
<circle cx="23" cy="23" r="23" fill="white"/>
<path d="M22.9998 31.4411L21.6658 30.2267C16.9278 25.9303 13.7998 23.0967 13.7998 19.6191C13.7998 16.7855 16.0262 14.5591 18.8598 14.5591C20.4606 14.5591 21.997 15.3043 22.9998 16.4819C24.0026 15.3043 25.539 14.5591 27.1398 14.5591C29.9734 14.5591 32.1998 16.7855 32.1998 19.6191C32.1998 23.0967 29.0718 25.9303 24.3338 30.2359L22.9998 31.4411Z" fill="black"/>
<path d="M22.9998 31.4411L21.6658 30.2267C16.9278 25.9303 13.7998 23.0967 13.7998 19.6191C13.7998 16.7855 16.0262 14.5591 18.8598 14.5591C20.4606 14.5591 21.997 15.3043 22.9998 16.4819C24.0026 15.3043 25.539 14.5591 27.1398 14.5591C29.9734 14.5591 32.1998 16.7855 32.1998 19.6191C32.1998 23.0967 29.0718 25.9303 24.3338 30.2359L22.9998 31.4411Z" fill="black" fill-opacity="0.2"/>
</svg>
