<svg width="14" height="10" viewBox="0 0 14 10" fill="none" xmlns="http://www.w3.org/2000/svg">
<path d="M7 0.0996094C3.81818 0.0996094 1.10091 2.0787 0 4.87234C1.10091 7.66597 3.81818 9.64506 7 9.64506C10.1818 9.64506 12.8991 7.66597 14 4.87234C12.8991 2.0787 10.1818 0.0996094 7 0.0996094ZM7 8.05415C5.24364 8.05415 3.81818 6.6287 3.81818 4.87234C3.81818 3.11597 5.24364 1.69052 7 1.69052C8.75636 1.69052 10.1818 3.11597 10.1818 4.87234C10.1818 6.6287 8.75636 8.05415 7 8.05415ZM7 2.96325C5.94364 2.96325 5.09091 3.81597 5.09091 4.87234C5.09091 5.9287 5.94364 6.78143 7 6.78143C8.05636 6.78143 8.90909 5.9287 8.90909 4.87234C8.90909 3.81597 8.05636 2.96325 7 2.96325Z" fill="#A3A3A3"/>
</svg>
